<?xml version="1.0" encoding="utf-8" standalone="no"?>
<!DOCTYPE svg PUBLIC "-//W3C//DTD SVG 1.1//EN"
  "http://www.w3.org/Graphics/SVG/1.1/DTD/svg11.dtd">
<svg xmlns:xlink="http://www.w3.org/1999/xlink" width="864pt" height="432pt" viewBox="0 0 864 432" xmlns="http://www.w3.org/2000/svg" version="1.1">
 <metadata>
  <rdf:RDF xmlns:dc="http://purl.org/dc/elements/1.1/" xmlns:cc="http://creativecommons.org/ns#" xmlns:rdf="http://www.w3.org/1999/02/22-rdf-syntax-ns#">
   <cc:Work>
    <dc:type rdf:resource="http://purl.org/dc/dcmitype/StillImage"/>
    <dc:date>2023-06-16T09:15:01.708125</dc:date>
    <dc:format>image/svg+xml</dc:format>
    <dc:creator>
     <cc:Agent>
      <dc:title>Matplotlib v3.7.1, https://matplotlib.org/</dc:title>
     </cc:Agent>
    </dc:creator>
   </cc:Work>
  </rdf:RDF>
 </metadata>
 <defs>
  <style type="text/css">*{stroke-linejoin: round; stroke-linecap: butt}</style>
 </defs>
 <g id="figure_1">
  <g id="patch_1">
   <path d="M 0 432 
L 864 432 
L 864 0 
L 0 0 
z
" style="fill: #ffffff"/>
  </g>
  <g id="axes_1">
   <g id="patch_2">
    <path d="M 48.79575 363.1455 
L 848.448 363.1455 
L 848.448 27.912 
L 48.79575 27.912 
z
" style="fill: #eaeaf2"/>
   </g>
   <g id="matplotlib.axis_1">
    <g id="xtick_1">
     <g id="line2d_1">
      <path d="M 85.14358 363.1455 
L 85.14358 27.912 
" clip-path="url(#p10db924e57)" style="fill: none; stroke: #ffffff; stroke-linecap: round"/>
     </g>
     <g id="text_1">
      <!-- 1950 -->
      <g style="fill: #262626" transform="translate(88.85608 399.0455) rotate(-90) scale(0.132 -0.132)">
       <defs>
        <path id="SimHei-31" d="M 1400 3600 
Q 1075 3275 575 2975 
L 575 3450 
Q 1200 3875 1600 4450 
L 1900 4450 
L 1900 150 
L 1400 150 
L 1400 3600 
z
" transform="scale(0.015625)"/>
        <path id="SimHei-39" d="M 800 75 
Q 1350 1000 1700 1750 
Q 1075 1650 662 1912 
Q 250 2175 162 2625 
Q 75 3075 175 3437 
Q 275 3800 487 4037 
Q 700 4275 1000 4375 
Q 1300 4475 1537 4475 
Q 1775 4475 2025 4375 
Q 2275 4275 2475 4075 
Q 2675 3875 2750 3662 
Q 2825 3450 2825 3112 
Q 2825 2775 2575 2250 
Q 2325 1725 1350 75 
L 800 75 
z
M 662 2875 
Q 700 2550 937 2337 
Q 1175 2125 1450 2150 
Q 1725 2175 1887 2300 
Q 2050 2425 2200 2725 
Q 2300 3100 2250 3362 
Q 2200 3625 1987 3800 
Q 1775 3975 1525 3975 
Q 1375 4000 1137 3900 
Q 900 3800 762 3500 
Q 625 3200 662 2875 
z
" transform="scale(0.015625)"/>
        <path id="SimHei-35" d="M 550 1325 
Q 725 650 1150 575 
Q 1575 500 1837 662 
Q 2100 825 2212 1087 
Q 2325 1350 2312 1675 
Q 2300 2000 2137 2225 
Q 1975 2450 1725 2525 
Q 1475 2600 1162 2525 
Q 850 2450 650 2175 
L 225 2225 
Q 275 2375 700 4375 
L 2675 4375 
L 2675 3925 
L 1075 3925 
Q 950 3250 825 2850 
Q 1200 3025 1525 3012 
Q 1850 3000 2150 2862 
Q 2450 2725 2587 2487 
Q 2725 2250 2787 2012 
Q 2850 1775 2837 1500 
Q 2825 1225 2725 937 
Q 2625 650 2425 462 
Q 2225 275 1937 162 
Q 1650 50 1275 75 
Q 900 100 562 350 
Q 225 600 100 1200 
L 550 1325 
z
" transform="scale(0.015625)"/>
        <path id="SimHei-30" d="M 225 2537 
Q 250 3200 412 3587 
Q 575 3975 875 4225 
Q 1175 4475 1612 4475 
Q 2050 4475 2375 4112 
Q 2700 3750 2800 3200 
Q 2900 2650 2862 1937 
Q 2825 1225 2612 775 
Q 2400 325 1975 150 
Q 1550 -25 1125 187 
Q 700 400 525 750 
Q 350 1100 275 1487 
Q 200 1875 225 2537 
z
M 750 2687 
Q 675 2000 800 1462 
Q 925 925 1212 700 
Q 1500 475 1800 612 
Q 2100 750 2237 1162 
Q 2375 1575 2375 2062 
Q 2375 2550 2337 2950 
Q 2300 3350 2112 3675 
Q 1925 4000 1612 4012 
Q 1300 4025 1062 3700 
Q 825 3375 750 2687 
z
" transform="scale(0.015625)"/>
       </defs>
       <use xlink:href="#SimHei-31"/>
       <use xlink:href="#SimHei-39" x="50"/>
       <use xlink:href="#SimHei-35" x="100"/>
       <use xlink:href="#SimHei-30" x="150"/>
      </g>
     </g>
    </g>
    <g id="xtick_2">
     <g id="line2d_2">
      <path d="M 105.62123 363.1455 
L 105.62123 27.912 
" clip-path="url(#p10db924e57)" style="fill: none; stroke: #ffffff; stroke-linecap: round"/>
     </g>
     <g id="text_2">
      <!-- 1952 -->
      <g style="fill: #262626" transform="translate(109.33373 399.0455) rotate(-90) scale(0.132 -0.132)">
       <defs>
        <path id="SimHei-32" d="M 300 250 
Q 325 625 650 925 
Q 975 1225 1475 1862 
Q 1975 2500 2125 2850 
Q 2275 3200 2237 3450 
Q 2200 3700 2000 3862 
Q 1800 4025 1537 4000 
Q 1275 3975 1037 3800 
Q 800 3625 675 3275 
L 200 3350 
Q 400 3925 712 4187 
Q 1025 4450 1450 4475 
Q 1700 4500 1900 4462 
Q 2100 4425 2312 4287 
Q 2525 4150 2662 3875 
Q 2800 3600 2762 3212 
Q 2725 2825 2375 2287 
Q 2025 1750 1025 600 
L 2825 600 
L 2825 150 
L 300 150 
L 300 250 
z
" transform="scale(0.015625)"/>
       </defs>
       <use xlink:href="#SimHei-31"/>
       <use xlink:href="#SimHei-39" x="50"/>
       <use xlink:href="#SimHei-35" x="100"/>
       <use xlink:href="#SimHei-32" x="150"/>
      </g>
     </g>
    </g>
    <g id="xtick_3">
     <g id="line2d_3">
      <path d="M 126.09888 363.1455 
L 126.09888 27.912 
" clip-path="url(#p10db924e57)" style="fill: none; stroke: #ffffff; stroke-linecap: round"/>
     </g>
     <g id="text_3">
      <!-- 1954 -->
      <g style="fill: #262626" transform="translate(129.81138 399.0455) rotate(-90) scale(0.132 -0.132)">
       <defs>
        <path id="SimHei-34" d="M 2000 1100 
L 75 1100 
L 75 1525 
L 2100 4450 
L 2475 4450 
L 2475 1525 
L 3075 1525 
L 3075 1100 
L 2475 1100 
L 2475 150 
L 2000 150 
L 2000 1100 
z
M 2000 1525 
L 2000 3500 
L 600 1525 
L 2000 1525 
z
" transform="scale(0.015625)"/>
       </defs>
       <use xlink:href="#SimHei-31"/>
       <use xlink:href="#SimHei-39" x="50"/>
       <use xlink:href="#SimHei-35" x="100"/>
       <use xlink:href="#SimHei-34" x="150"/>
      </g>
     </g>
    </g>
    <g id="xtick_4">
     <g id="line2d_4">
      <path d="M 146.576531 363.1455 
L 146.576531 27.912 
" clip-path="url(#p10db924e57)" style="fill: none; stroke: #ffffff; stroke-linecap: round"/>
     </g>
     <g id="text_4">
      <!-- 1956 -->
      <g style="fill: #262626" transform="translate(150.289031 399.0455) rotate(-90) scale(0.132 -0.132)">
       <defs>
        <path id="SimHei-36" d="M 250 1612 
Q 275 1975 387 2225 
Q 500 2475 725 2850 
L 1750 4450 
L 2325 4450 
L 1275 2800 
Q 1950 2975 2350 2750 
Q 2750 2525 2887 2237 
Q 3025 1950 3037 1612 
Q 3050 1275 2937 950 
Q 2825 625 2537 362 
Q 2250 100 1737 75 
Q 1225 50 862 262 
Q 500 475 362 862 
Q 225 1250 250 1612 
z
M 1025 787 
Q 1250 550 1625 525 
Q 2000 500 2250 775 
Q 2500 1050 2500 1575 
Q 2500 2100 2187 2300 
Q 1875 2500 1487 2450 
Q 1100 2400 925 2075 
Q 750 1750 775 1387 
Q 800 1025 1025 787 
z
" transform="scale(0.015625)"/>
       </defs>
       <use xlink:href="#SimHei-31"/>
       <use xlink:href="#SimHei-39" x="50"/>
       <use xlink:href="#SimHei-35" x="100"/>
       <use xlink:href="#SimHei-36" x="150"/>
      </g>
     </g>
    </g>
    <g id="xtick_5">
     <g id="line2d_5">
      <path d="M 167.054181 363.1455 
L 167.054181 27.912 
" clip-path="url(#p10db924e57)" style="fill: none; stroke: #ffffff; stroke-linecap: round"/>
     </g>
     <g id="text_5">
      <!-- 1958 -->
      <g style="fill: #262626" transform="translate(170.766681 399.0455) rotate(-90) scale(0.132 -0.132)">
       <defs>
        <path id="SimHei-38" d="M 175 1375 
Q 175 1675 325 1962 
Q 475 2250 825 2425 
Q 525 2600 425 2812 
Q 325 3025 312 3300 
Q 300 3575 387 3775 
Q 475 3975 650 4150 
Q 825 4325 1037 4387 
Q 1250 4450 1500 4450 
Q 1750 4450 1950 4400 
Q 2150 4350 2375 4187 
Q 2600 4025 2700 3725 
Q 2800 3425 2687 3025 
Q 2575 2625 2100 2400 
Q 2525 2275 2700 2012 
Q 2875 1750 2875 1375 
Q 2875 1000 2762 775 
Q 2650 550 2512 400 
Q 2375 250 2137 162 
Q 1900 75 1537 75 
Q 1175 75 912 162 
Q 650 250 475 425 
Q 300 600 237 837 
Q 175 1075 175 1375 
z
M 687 1400 
Q 675 1100 787 875 
Q 900 650 1200 587 
Q 1500 525 1825 600 
Q 2150 675 2275 950 
Q 2400 1225 2362 1500 
Q 2325 1775 2050 1962 
Q 1775 2150 1450 2125 
Q 1125 2100 912 1900 
Q 700 1700 687 1400 
z
M 775 3350 
Q 775 3100 950 2875 
Q 1125 2650 1500 2650 
Q 1875 2650 2062 2875 
Q 2250 3100 2237 3412 
Q 2225 3725 2012 3875 
Q 1800 4025 1437 4000 
Q 1075 3975 925 3787 
Q 775 3600 775 3350 
z
" transform="scale(0.015625)"/>
       </defs>
       <use xlink:href="#SimHei-31"/>
       <use xlink:href="#SimHei-39" x="50"/>
       <use xlink:href="#SimHei-35" x="100"/>
       <use xlink:href="#SimHei-38" x="150"/>
      </g>
     </g>
    </g>
    <g id="xtick_6">
     <g id="line2d_6">
      <path d="M 187.531832 363.1455 
L 187.531832 27.912 
" clip-path="url(#p10db924e57)" style="fill: none; stroke: #ffffff; stroke-linecap: round"/>
     </g>
     <g id="text_6">
      <!-- 1960 -->
      <g style="fill: #262626" transform="translate(191.244332 399.0455) rotate(-90) scale(0.132 -0.132)">
       <use xlink:href="#SimHei-31"/>
       <use xlink:href="#SimHei-39" x="50"/>
       <use xlink:href="#SimHei-36" x="100"/>
       <use xlink:href="#SimHei-30" x="150"/>
      </g>
     </g>
    </g>
    <g id="xtick_7">
     <g id="line2d_7">
      <path d="M 208.009482 363.1455 
L 208.009482 27.912 
" clip-path="url(#p10db924e57)" style="fill: none; stroke: #ffffff; stroke-linecap: round"/>
     </g>
     <g id="text_7">
      <!-- 1962 -->
      <g style="fill: #262626" transform="translate(211.721982 399.0455) rotate(-90) scale(0.132 -0.132)">
       <use xlink:href="#SimHei-31"/>
       <use xlink:href="#SimHei-39" x="50"/>
       <use xlink:href="#SimHei-36" x="100"/>
       <use xlink:href="#SimHei-32" x="150"/>
      </g>
     </g>
    </g>
    <g id="xtick_8">
     <g id="line2d_8">
      <path d="M 228.487133 363.1455 
L 228.487133 27.912 
" clip-path="url(#p10db924e57)" style="fill: none; stroke: #ffffff; stroke-linecap: round"/>
     </g>
     <g id="text_8">
      <!-- 1964 -->
      <g style="fill: #262626" transform="translate(232.199633 399.0455) rotate(-90) scale(0.132 -0.132)">
       <use xlink:href="#SimHei-31"/>
       <use xlink:href="#SimHei-39" x="50"/>
       <use xlink:href="#SimHei-36" x="100"/>
       <use xlink:href="#SimHei-34" x="150"/>
      </g>
     </g>
    </g>
    <g id="xtick_9">
     <g id="line2d_9">
      <path d="M 248.964783 363.1455 
L 248.964783 27.912 
" clip-path="url(#p10db924e57)" style="fill: none; stroke: #ffffff; stroke-linecap: round"/>
     </g>
     <g id="text_9">
      <!-- 1966 -->
      <g style="fill: #262626" transform="translate(252.677283 399.0455) rotate(-90) scale(0.132 -0.132)">
       <use xlink:href="#SimHei-31"/>
       <use xlink:href="#SimHei-39" x="50"/>
       <use xlink:href="#SimHei-36" x="100"/>
       <use xlink:href="#SimHei-36" x="150"/>
      </g>
     </g>
    </g>
    <g id="xtick_10">
     <g id="line2d_10">
      <path d="M 269.442434 363.1455 
L 269.442434 27.912 
" clip-path="url(#p10db924e57)" style="fill: none; stroke: #ffffff; stroke-linecap: round"/>
     </g>
     <g id="text_10">
      <!-- 1968 -->
      <g style="fill: #262626" transform="translate(273.154934 399.0455) rotate(-90) scale(0.132 -0.132)">
       <use xlink:href="#SimHei-31"/>
       <use xlink:href="#SimHei-39" x="50"/>
       <use xlink:href="#SimHei-36" x="100"/>
       <use xlink:href="#SimHei-38" x="150"/>
      </g>
     </g>
    </g>
    <g id="xtick_11">
     <g id="line2d_11">
      <path d="M 289.920084 363.1455 
L 289.920084 27.912 
" clip-path="url(#p10db924e57)" style="fill: none; stroke: #ffffff; stroke-linecap: round"/>
     </g>
     <g id="text_11">
      <!-- 1970 -->
      <g style="fill: #262626" transform="translate(293.632584 399.0455) rotate(-90) scale(0.132 -0.132)">
       <defs>
        <path id="SimHei-37" d="M 850 150 
Q 1300 2050 2425 3925 
L 275 3925 
L 275 4375 
L 2950 4375 
L 2950 3950 
Q 1775 2050 1400 150 
L 850 150 
z
" transform="scale(0.015625)"/>
       </defs>
       <use xlink:href="#SimHei-31"/>
       <use xlink:href="#SimHei-39" x="50"/>
       <use xlink:href="#SimHei-37" x="100"/>
       <use xlink:href="#SimHei-30" x="150"/>
      </g>
     </g>
    </g>
    <g id="xtick_12">
     <g id="line2d_12">
      <path d="M 310.397734 363.1455 
L 310.397734 27.912 
" clip-path="url(#p10db924e57)" style="fill: none; stroke: #ffffff; stroke-linecap: round"/>
     </g>
     <g id="text_12">
      <!-- 1972 -->
      <g style="fill: #262626" transform="translate(314.110234 399.0455) rotate(-90) scale(0.132 -0.132)">
       <use xlink:href="#SimHei-31"/>
       <use xlink:href="#SimHei-39" x="50"/>
       <use xlink:href="#SimHei-37" x="100"/>
       <use xlink:href="#SimHei-32" x="150"/>
      </g>
     </g>
    </g>
    <g id="xtick_13">
     <g id="line2d_13">
      <path d="M 330.875385 363.1455 
L 330.875385 27.912 
" clip-path="url(#p10db924e57)" style="fill: none; stroke: #ffffff; stroke-linecap: round"/>
     </g>
     <g id="text_13">
      <!-- 1974 -->
      <g style="fill: #262626" transform="translate(334.587885 399.0455) rotate(-90) scale(0.132 -0.132)">
       <use xlink:href="#SimHei-31"/>
       <use xlink:href="#SimHei-39" x="50"/>
       <use xlink:href="#SimHei-37" x="100"/>
       <use xlink:href="#SimHei-34" x="150"/>
      </g>
     </g>
    </g>
    <g id="xtick_14">
     <g id="line2d_14">
      <path d="M 351.353035 363.1455 
L 351.353035 27.912 
" clip-path="url(#p10db924e57)" style="fill: none; stroke: #ffffff; stroke-linecap: round"/>
     </g>
     <g id="text_14">
      <!-- 1976 -->
      <g style="fill: #262626" transform="translate(355.065535 399.0455) rotate(-90) scale(0.132 -0.132)">
       <use xlink:href="#SimHei-31"/>
       <use xlink:href="#SimHei-39" x="50"/>
       <use xlink:href="#SimHei-37" x="100"/>
       <use xlink:href="#SimHei-36" x="150"/>
      </g>
     </g>
    </g>
    <g id="xtick_15">
     <g id="line2d_15">
      <path d="M 371.830686 363.1455 
L 371.830686 27.912 
" clip-path="url(#p10db924e57)" style="fill: none; stroke: #ffffff; stroke-linecap: round"/>
     </g>
     <g id="text_15">
      <!-- 1978 -->
      <g style="fill: #262626" transform="translate(375.543186 399.0455) rotate(-90) scale(0.132 -0.132)">
       <use xlink:href="#SimHei-31"/>
       <use xlink:href="#SimHei-39" x="50"/>
       <use xlink:href="#SimHei-37" x="100"/>
       <use xlink:href="#SimHei-38" x="150"/>
      </g>
     </g>
    </g>
    <g id="xtick_16">
     <g id="line2d_16">
      <path d="M 392.308336 363.1455 
L 392.308336 27.912 
" clip-path="url(#p10db924e57)" style="fill: none; stroke: #ffffff; stroke-linecap: round"/>
     </g>
     <g id="text_16">
      <!-- 1980 -->
      <g style="fill: #262626" transform="translate(396.020836 399.0455) rotate(-90) scale(0.132 -0.132)">
       <use xlink:href="#SimHei-31"/>
       <use xlink:href="#SimHei-39" x="50"/>
       <use xlink:href="#SimHei-38" x="100"/>
       <use xlink:href="#SimHei-30" x="150"/>
      </g>
     </g>
    </g>
    <g id="xtick_17">
     <g id="line2d_17">
      <path d="M 412.785987 363.1455 
L 412.785987 27.912 
" clip-path="url(#p10db924e57)" style="fill: none; stroke: #ffffff; stroke-linecap: round"/>
     </g>
     <g id="text_17">
      <!-- 1982 -->
      <g style="fill: #262626" transform="translate(416.498487 399.0455) rotate(-90) scale(0.132 -0.132)">
       <use xlink:href="#SimHei-31"/>
       <use xlink:href="#SimHei-39" x="50"/>
       <use xlink:href="#SimHei-38" x="100"/>
       <use xlink:href="#SimHei-32" x="150"/>
      </g>
     </g>
    </g>
    <g id="xtick_18">
     <g id="line2d_18">
      <path d="M 433.263637 363.1455 
L 433.263637 27.912 
" clip-path="url(#p10db924e57)" style="fill: none; stroke: #ffffff; stroke-linecap: round"/>
     </g>
     <g id="text_18">
      <!-- 1984 -->
      <g style="fill: #262626" transform="translate(436.976137 399.0455) rotate(-90) scale(0.132 -0.132)">
       <use xlink:href="#SimHei-31"/>
       <use xlink:href="#SimHei-39" x="50"/>
       <use xlink:href="#SimHei-38" x="100"/>
       <use xlink:href="#SimHei-34" x="150"/>
      </g>
     </g>
    </g>
    <g id="xtick_19">
     <g id="line2d_19">
      <path d="M 453.741288 363.1455 
L 453.741288 27.912 
" clip-path="url(#p10db924e57)" style="fill: none; stroke: #ffffff; stroke-linecap: round"/>
     </g>
     <g id="text_19">
      <!-- 1986 -->
      <g style="fill: #262626" transform="translate(457.453788 399.0455) rotate(-90) scale(0.132 -0.132)">
       <use xlink:href="#SimHei-31"/>
       <use xlink:href="#SimHei-39" x="50"/>
       <use xlink:href="#SimHei-38" x="100"/>
       <use xlink:href="#SimHei-36" x="150"/>
      </g>
     </g>
    </g>
    <g id="xtick_20">
     <g id="line2d_20">
      <path d="M 474.218938 363.1455 
L 474.218938 27.912 
" clip-path="url(#p10db924e57)" style="fill: none; stroke: #ffffff; stroke-linecap: round"/>
     </g>
     <g id="text_20">
      <!-- 1988 -->
      <g style="fill: #262626" transform="translate(477.931438 399.0455) rotate(-90) scale(0.132 -0.132)">
       <use xlink:href="#SimHei-31"/>
       <use xlink:href="#SimHei-39" x="50"/>
       <use xlink:href="#SimHei-38" x="100"/>
       <use xlink:href="#SimHei-38" x="150"/>
      </g>
     </g>
    </g>
    <g id="xtick_21">
     <g id="line2d_21">
      <path d="M 494.696589 363.1455 
L 494.696589 27.912 
" clip-path="url(#p10db924e57)" style="fill: none; stroke: #ffffff; stroke-linecap: round"/>
     </g>
     <g id="text_21">
      <!-- 1990 -->
      <g style="fill: #262626" transform="translate(498.409089 399.0455) rotate(-90) scale(0.132 -0.132)">
       <use xlink:href="#SimHei-31"/>
       <use xlink:href="#SimHei-39" x="50"/>
       <use xlink:href="#SimHei-39" x="100"/>
       <use xlink:href="#SimHei-30" x="150"/>
      </g>
     </g>
    </g>
    <g id="xtick_22">
     <g id="line2d_22">
      <path d="M 515.174239 363.1455 
L 515.174239 27.912 
" clip-path="url(#p10db924e57)" style="fill: none; stroke: #ffffff; stroke-linecap: round"/>
     </g>
     <g id="text_22">
      <!-- 1992 -->
      <g style="fill: #262626" transform="translate(518.886739 399.0455) rotate(-90) scale(0.132 -0.132)">
       <use xlink:href="#SimHei-31"/>
       <use xlink:href="#SimHei-39" x="50"/>
       <use xlink:href="#SimHei-39" x="100"/>
       <use xlink:href="#SimHei-32" x="150"/>
      </g>
     </g>
    </g>
    <g id="xtick_23">
     <g id="line2d_23">
      <path d="M 535.651889 363.1455 
L 535.651889 27.912 
" clip-path="url(#p10db924e57)" style="fill: none; stroke: #ffffff; stroke-linecap: round"/>
     </g>
     <g id="text_23">
      <!-- 1994 -->
      <g style="fill: #262626" transform="translate(539.364389 399.0455) rotate(-90) scale(0.132 -0.132)">
       <use xlink:href="#SimHei-31"/>
       <use xlink:href="#SimHei-39" x="50"/>
       <use xlink:href="#SimHei-39" x="100"/>
       <use xlink:href="#SimHei-34" x="150"/>
      </g>
     </g>
    </g>
    <g id="xtick_24">
     <g id="line2d_24">
      <path d="M 556.12954 363.1455 
L 556.12954 27.912 
" clip-path="url(#p10db924e57)" style="fill: none; stroke: #ffffff; stroke-linecap: round"/>
     </g>
     <g id="text_24">
      <!-- 1996 -->
      <g style="fill: #262626" transform="translate(559.84204 399.0455) rotate(-90) scale(0.132 -0.132)">
       <use xlink:href="#SimHei-31"/>
       <use xlink:href="#SimHei-39" x="50"/>
       <use xlink:href="#SimHei-39" x="100"/>
       <use xlink:href="#SimHei-36" x="150"/>
      </g>
     </g>
    </g>
    <g id="xtick_25">
     <g id="line2d_25">
      <path d="M 576.60719 363.1455 
L 576.60719 27.912 
" clip-path="url(#p10db924e57)" style="fill: none; stroke: #ffffff; stroke-linecap: round"/>
     </g>
     <g id="text_25">
      <!-- 1998 -->
      <g style="fill: #262626" transform="translate(580.31969 399.0455) rotate(-90) scale(0.132 -0.132)">
       <use xlink:href="#SimHei-31"/>
       <use xlink:href="#SimHei-39" x="50"/>
       <use xlink:href="#SimHei-39" x="100"/>
       <use xlink:href="#SimHei-38" x="150"/>
      </g>
     </g>
    </g>
    <g id="xtick_26">
     <g id="line2d_26">
      <path d="M 597.084841 363.1455 
L 597.084841 27.912 
" clip-path="url(#p10db924e57)" style="fill: none; stroke: #ffffff; stroke-linecap: round"/>
     </g>
     <g id="text_26">
      <!-- 2000 -->
      <g style="fill: #262626" transform="translate(600.797341 399.0455) rotate(-90) scale(0.132 -0.132)">
       <use xlink:href="#SimHei-32"/>
       <use xlink:href="#SimHei-30" x="50"/>
       <use xlink:href="#SimHei-30" x="100"/>
       <use xlink:href="#SimHei-30" x="150"/>
      </g>
     </g>
    </g>
    <g id="xtick_27">
     <g id="line2d_27">
      <path d="M 617.562491 363.1455 
L 617.562491 27.912 
" clip-path="url(#p10db924e57)" style="fill: none; stroke: #ffffff; stroke-linecap: round"/>
     </g>
     <g id="text_27">
      <!-- 2002 -->
      <g style="fill: #262626" transform="translate(621.274991 399.0455) rotate(-90) scale(0.132 -0.132)">
       <use xlink:href="#SimHei-32"/>
       <use xlink:href="#SimHei-30" x="50"/>
       <use xlink:href="#SimHei-30" x="100"/>
       <use xlink:href="#SimHei-32" x="150"/>
      </g>
     </g>
    </g>
    <g id="xtick_28">
     <g id="line2d_28">
      <path d="M 638.040142 363.1455 
L 638.040142 27.912 
" clip-path="url(#p10db924e57)" style="fill: none; stroke: #ffffff; stroke-linecap: round"/>
     </g>
     <g id="text_28">
      <!-- 2004 -->
      <g style="fill: #262626" transform="translate(641.752642 399.0455) rotate(-90) scale(0.132 -0.132)">
       <use xlink:href="#SimHei-32"/>
       <use xlink:href="#SimHei-30" x="50"/>
       <use xlink:href="#SimHei-30" x="100"/>
       <use xlink:href="#SimHei-34" x="150"/>
      </g>
     </g>
    </g>
    <g id="xtick_29">
     <g id="line2d_29">
      <path d="M 658.517792 363.1455 
L 658.517792 27.912 
" clip-path="url(#p10db924e57)" style="fill: none; stroke: #ffffff; stroke-linecap: round"/>
     </g>
     <g id="text_29">
      <!-- 2006 -->
      <g style="fill: #262626" transform="translate(662.230292 399.0455) rotate(-90) scale(0.132 -0.132)">
       <use xlink:href="#SimHei-32"/>
       <use xlink:href="#SimHei-30" x="50"/>
       <use xlink:href="#SimHei-30" x="100"/>
       <use xlink:href="#SimHei-36" x="150"/>
      </g>
     </g>
    </g>
    <g id="xtick_30">
     <g id="line2d_30">
      <path d="M 678.995443 363.1455 
L 678.995443 27.912 
" clip-path="url(#p10db924e57)" style="fill: none; stroke: #ffffff; stroke-linecap: round"/>
     </g>
     <g id="text_30">
      <!-- 2008 -->
      <g style="fill: #262626" transform="translate(682.707943 399.0455) rotate(-90) scale(0.132 -0.132)">
       <use xlink:href="#SimHei-32"/>
       <use xlink:href="#SimHei-30" x="50"/>
       <use xlink:href="#SimHei-30" x="100"/>
       <use xlink:href="#SimHei-38" x="150"/>
      </g>
     </g>
    </g>
    <g id="xtick_31">
     <g id="line2d_31">
      <path d="M 699.473093 363.1455 
L 699.473093 27.912 
" clip-path="url(#p10db924e57)" style="fill: none; stroke: #ffffff; stroke-linecap: round"/>
     </g>
     <g id="text_31">
      <!-- 2010 -->
      <g style="fill: #262626" transform="translate(703.185593 399.0455) rotate(-90) scale(0.132 -0.132)">
       <use xlink:href="#SimHei-32"/>
       <use xlink:href="#SimHei-30" x="50"/>
       <use xlink:href="#SimHei-31" x="100"/>
       <use xlink:href="#SimHei-30" x="150"/>
      </g>
     </g>
    </g>
    <g id="xtick_32">
     <g id="line2d_32">
      <path d="M 719.950743 363.1455 
L 719.950743 27.912 
" clip-path="url(#p10db924e57)" style="fill: none; stroke: #ffffff; stroke-linecap: round"/>
     </g>
     <g id="text_32">
      <!-- 2012 -->
      <g style="fill: #262626" transform="translate(723.663243 399.0455) rotate(-90) scale(0.132 -0.132)">
       <use xlink:href="#SimHei-32"/>
       <use xlink:href="#SimHei-30" x="50"/>
       <use xlink:href="#SimHei-31" x="100"/>
       <use xlink:href="#SimHei-32" x="150"/>
      </g>
     </g>
    </g>
    <g id="xtick_33">
     <g id="line2d_33">
      <path d="M 740.428394 363.1455 
L 740.428394 27.912 
" clip-path="url(#p10db924e57)" style="fill: none; stroke: #ffffff; stroke-linecap: round"/>
     </g>
     <g id="text_33">
      <!-- 2014 -->
      <g style="fill: #262626" transform="translate(744.140894 399.0455) rotate(-90) scale(0.132 -0.132)">
       <use xlink:href="#SimHei-32"/>
       <use xlink:href="#SimHei-30" x="50"/>
       <use xlink:href="#SimHei-31" x="100"/>
       <use xlink:href="#SimHei-34" x="150"/>
      </g>
     </g>
    </g>
    <g id="xtick_34">
     <g id="line2d_34">
      <path d="M 760.906044 363.1455 
L 760.906044 27.912 
" clip-path="url(#p10db924e57)" style="fill: none; stroke: #ffffff; stroke-linecap: round"/>
     </g>
     <g id="text_34">
      <!-- 2016 -->
      <g style="fill: #262626" transform="translate(764.618544 399.0455) rotate(-90) scale(0.132 -0.132)">
       <use xlink:href="#SimHei-32"/>
       <use xlink:href="#SimHei-30" x="50"/>
       <use xlink:href="#SimHei-31" x="100"/>
       <use xlink:href="#SimHei-36" x="150"/>
      </g>
     </g>
    </g>
    <g id="xtick_35">
     <g id="line2d_35">
      <path d="M 781.383695 363.1455 
L 781.383695 27.912 
" clip-path="url(#p10db924e57)" style="fill: none; stroke: #ffffff; stroke-linecap: round"/>
     </g>
     <g id="text_35">
      <!-- 2018 -->
      <g style="fill: #262626" transform="translate(785.096195 399.0455) rotate(-90) scale(0.132 -0.132)">
       <use xlink:href="#SimHei-32"/>
       <use xlink:href="#SimHei-30" x="50"/>
       <use xlink:href="#SimHei-31" x="100"/>
       <use xlink:href="#SimHei-38" x="150"/>
      </g>
     </g>
    </g>
    <g id="xtick_36">
     <g id="line2d_36">
      <path d="M 801.861345 363.1455 
L 801.861345 27.912 
" clip-path="url(#p10db924e57)" style="fill: none; stroke: #ffffff; stroke-linecap: round"/>
     </g>
     <g id="text_36">
      <!-- 2020 -->
      <g style="fill: #262626" transform="translate(805.573845 399.0455) rotate(-90) scale(0.132 -0.132)">
       <use xlink:href="#SimHei-32"/>
       <use xlink:href="#SimHei-30" x="50"/>
       <use xlink:href="#SimHei-32" x="100"/>
       <use xlink:href="#SimHei-30" x="150"/>
      </g>
     </g>
    </g>
    <g id="text_37">
     <!-- 年份 -->
     <g style="fill: #262626" transform="translate(434.221875 414.5205) scale(0.144 -0.144)">
      <defs>
       <path id="SimHei-5e74" d="M 350 2925 
Q 900 3450 1375 4200 
Q 1850 4950 1900 5275 
Q 2275 5125 2600 5050 
Q 2375 4825 2100 4325 
L 4625 4325 
Q 5175 4325 5750 4350 
L 5750 3925 
Q 5225 3950 4625 3950 
L 3800 3950 
L 3800 2925 
Q 4750 2925 5475 2950 
L 5475 2525 
Q 4725 2550 3800 2550 
L 3800 1375 
L 5075 1375 
Q 5625 1375 6100 1400 
L 6100 975 
Q 5650 1000 5075 1000 
L 3800 1000 
L 3800 425 
Q 3800 -150 3825 -625 
L 3275 -625 
Q 3300 -150 3300 375 
L 3300 1000 
L 1600 1000 
Q 900 1000 275 975 
L 275 1400 
Q 875 1375 1450 1375 
Q 1450 2350 1425 2925 
L 3300 2925 
L 3300 3950 
L 1875 3950 
Q 1350 3150 925 2650 
Q 650 2875 350 2925 
z
M 3300 1375 
L 3300 2550 
L 1925 2550 
L 1925 1375 
L 3300 1375 
z
" transform="scale(0.015625)"/>
       <path id="SimHei-4efd" d="M 4750 5100 
Q 4875 4375 5250 3650 
Q 5625 2925 6200 2450 
Q 6025 2375 5775 2075 
Q 5600 2275 5350 2575 
Q 5300 2275 5275 1312 
Q 5250 350 5187 25 
Q 5125 -300 4850 -400 
Q 4575 -500 4075 -550 
Q 4000 -250 3875 0 
Q 4400 -25 4575 25 
Q 4750 75 4775 587 
Q 4800 1100 4825 2250 
L 3700 2250 
Q 3675 1300 3425 650 
Q 3175 0 2375 -625 
Q 2175 -350 2000 -225 
Q 2750 225 2987 800 
Q 3225 1375 3225 2250 
Q 3000 2250 2675 2225 
L 2675 2575 
Q 2475 2300 2150 1950 
Q 2000 2150 1750 2300 
Q 2875 3275 3225 4875 
Q 3450 4775 3750 4675 
Q 3625 4400 3425 3887 
Q 3225 3375 2775 2700 
Q 3050 2675 3400 2675 
L 5300 2675 
Q 4575 3625 4275 4975 
Q 4575 5025 4750 5100 
z
M 225 2525 
Q 575 2875 1025 3687 
Q 1475 4500 1650 5225 
Q 1975 5075 2200 4975 
Q 2050 4750 1600 3775 
L 1600 625 
Q 1600 75 1625 -575 
L 1100 -575 
Q 1125 50 1125 625 
L 1125 2925 
Q 775 2400 575 2175 
Q 425 2350 225 2525 
z
" transform="scale(0.015625)"/>
      </defs>
      <use xlink:href="#SimHei-5e74"/>
      <use xlink:href="#SimHei-4efd" x="100"/>
     </g>
    </g>
   </g>
   <g id="matplotlib.axis_2">
    <g id="ytick_1">
     <g id="line2d_37">
      <path d="M 48.79575 319.703131 
L 848.448 319.703131 
" clip-path="url(#p10db924e57)" style="fill: none; stroke: #ffffff; stroke-linecap: round"/>
     </g>
     <g id="text_38">
      <!-- 3 -->
      <g style="fill: #262626" transform="translate(32.69575 324.240631) scale(0.132 -0.132)">
       <defs>
        <path id="SimHei-33" d="M 250 1225 
L 700 1300 
Q 800 975 1025 762 
Q 1250 550 1587 562 
Q 1925 575 2125 837 
Q 2325 1100 2300 1437 
Q 2275 1775 2037 1962 
Q 1800 2150 1275 2225 
L 1275 2550 
Q 1800 2600 2037 2825 
Q 2275 3050 2250 3412 
Q 2225 3775 1925 3937 
Q 1625 4100 1287 3975 
Q 950 3850 750 3275 
L 300 3350 
Q 450 3800 712 4100 
Q 975 4400 1425 4450 
Q 1875 4500 2212 4337 
Q 2550 4175 2687 3837 
Q 2825 3500 2725 3100 
Q 2625 2700 2150 2400 
Q 2500 2250 2687 1950 
Q 2875 1650 2812 1162 
Q 2750 675 2375 375 
Q 2000 75 1525 87 
Q 1050 100 700 387 
Q 350 675 250 1225 
z
" transform="scale(0.015625)"/>
       </defs>
       <use xlink:href="#SimHei-33"/>
      </g>
     </g>
    </g>
    <g id="ytick_2">
     <g id="line2d_38">
      <path d="M 48.79575 263.370553 
L 848.448 263.370553 
" clip-path="url(#p10db924e57)" style="fill: none; stroke: #ffffff; stroke-linecap: round"/>
     </g>
     <g id="text_39">
      <!-- 4 -->
      <g style="fill: #262626" transform="translate(32.69575 267.908053) scale(0.132 -0.132)">
       <use xlink:href="#SimHei-34"/>
      </g>
     </g>
    </g>
    <g id="ytick_3">
     <g id="line2d_39">
      <path d="M 48.79575 207.037975 
L 848.448 207.037975 
" clip-path="url(#p10db924e57)" style="fill: none; stroke: #ffffff; stroke-linecap: round"/>
     </g>
     <g id="text_40">
      <!-- 5 -->
      <g style="fill: #262626" transform="translate(32.69575 211.575475) scale(0.132 -0.132)">
       <use xlink:href="#SimHei-35"/>
      </g>
     </g>
    </g>
    <g id="ytick_4">
     <g id="line2d_40">
      <path d="M 48.79575 150.705396 
L 848.448 150.705396 
" clip-path="url(#p10db924e57)" style="fill: none; stroke: #ffffff; stroke-linecap: round"/>
     </g>
     <g id="text_41">
      <!-- 6 -->
      <g style="fill: #262626" transform="translate(32.69575 155.242896) scale(0.132 -0.132)">
       <use xlink:href="#SimHei-36"/>
      </g>
     </g>
    </g>
    <g id="ytick_5">
     <g id="line2d_41">
      <path d="M 48.79575 94.372818 
L 848.448 94.372818 
" clip-path="url(#p10db924e57)" style="fill: none; stroke: #ffffff; stroke-linecap: round"/>
     </g>
     <g id="text_42">
      <!-- 7 -->
      <g style="fill: #262626" transform="translate(32.69575 98.910318) scale(0.132 -0.132)">
       <use xlink:href="#SimHei-37"/>
      </g>
     </g>
    </g>
    <g id="ytick_6">
     <g id="line2d_42">
      <path d="M 48.79575 38.04024 
L 848.448 38.04024 
" clip-path="url(#p10db924e57)" style="fill: none; stroke: #ffffff; stroke-linecap: round"/>
     </g>
     <g id="text_43">
      <!-- 8 -->
      <g style="fill: #262626" transform="translate(32.69575 42.57774) scale(0.132 -0.132)">
       <use xlink:href="#SimHei-38"/>
      </g>
     </g>
    </g>
    <g id="text_44">
     <!-- 人口数量 -->
     <g style="fill: #262626" transform="translate(26.89575 224.32875) rotate(-90) scale(0.144 -0.144)">
      <defs>
       <path id="SimHei-4eba" d="M 350 -150 
Q 1325 325 1875 1025 
Q 2425 1725 2637 2462 
Q 2850 3200 2875 3837 
Q 2900 4475 2850 5175 
Q 3125 5150 3475 5125 
Q 3400 4725 3400 4300 
Q 3400 3875 3450 3325 
Q 3500 2775 4162 1662 
Q 4825 550 6100 0 
Q 5800 -300 5700 -500 
Q 3950 350 3200 2575 
Q 2700 600 775 -575 
Q 625 -375 350 -150 
z
" transform="scale(0.015625)"/>
       <path id="SimHei-53e3" d="M 5425 4300 
Q 5400 3775 5400 3175 
L 5400 550 
Q 5400 100 5425 -425 
L 4900 -425 
L 4900 100 
L 1525 100 
L 1525 -425 
L 1000 -425 
Q 1025 0 1025 550 
L 1025 3175 
Q 1025 3775 1000 4300 
L 5425 4300 
z
M 4900 525 
L 4900 3875 
L 1525 3875 
L 1525 525 
L 4900 525 
z
" transform="scale(0.015625)"/>
       <path id="SimHei-6570" d="M 4525 4925 
Q 4475 4800 4400 4587 
Q 4325 4375 4175 3825 
L 5325 3825 
Q 5575 3825 5925 3850 
L 5925 3400 
Q 5650 3425 5500 3425 
Q 5500 3025 5362 2162 
Q 5225 1300 4875 675 
Q 5125 375 5437 137 
Q 5750 -100 6025 -200 
Q 5725 -425 5625 -625 
Q 5325 -450 5075 -225 
Q 4825 0 4575 325 
Q 4300 25 3987 -187 
Q 3675 -400 3200 -650 
Q 3075 -425 2850 -300 
Q 3225 -150 3650 125 
Q 4075 400 4300 675 
Q 4125 1025 3962 1425 
Q 3800 1825 3675 2475 
Q 3600 2275 3425 1950 
Q 3250 2050 3000 2150 
Q 3400 2850 3650 3675 
Q 3900 4500 3975 5100 
Q 4275 4975 4525 4925 
z
M 2100 2250 
Q 2000 2150 1875 1925 
L 3250 1925 
Q 3100 1300 2725 675 
Q 3125 525 3350 400 
Q 3225 225 3125 25 
Q 2900 175 2450 325 
Q 1950 -225 725 -650 
Q 600 -375 400 -275 
Q 1575 0 2000 475 
Q 1300 650 850 775 
Q 1000 1000 1250 1525 
Q 1000 1525 425 1500 
L 425 1950 
Q 900 1925 1400 1925 
Q 1500 2150 1550 2425 
Q 1825 2325 2100 2250 
z
M 1775 3950 
Q 1775 4550 1750 5100 
L 2250 5100 
Q 2225 4575 2225 3950 
Q 3075 3950 3425 3975 
L 3425 3525 
Q 3075 3550 2225 3550 
Q 2225 2825 2250 2425 
L 1750 2425 
Q 1775 2775 1775 3300 
Q 1650 3100 1300 2787 
Q 950 2475 650 2300 
Q 525 2525 275 2625 
Q 500 2700 875 2975 
Q 1250 3250 1450 3550 
Q 950 3550 500 3525 
L 500 3975 
Q 925 3950 1775 3950 
z
M 3975 3175 
Q 4200 1700 4600 1125 
Q 4850 1700 4937 2287 
Q 5025 2875 5050 3425 
L 4075 3425 
L 3975 3175 
z
M 1450 1000 
Q 1750 925 2275 800 
Q 2475 1050 2650 1525 
L 1725 1525 
Q 1600 1275 1450 1000 
z
M 3325 4825 
Q 3200 4625 3125 4450 
Q 3050 4275 2925 4025 
Q 2725 4125 2525 4175 
Q 2725 4500 2900 5000 
Q 3150 4875 3325 4825 
z
M 2575 3375 
Q 2900 3050 3200 2725 
Q 3050 2600 2875 2425 
Q 2525 2850 2300 3100 
Q 2450 3225 2575 3375 
z
M 925 5000 
Q 1275 4650 1500 4300 
L 1125 4075 
Q 950 4425 600 4725 
Q 825 4875 925 5000 
z
" transform="scale(0.015625)"/>
       <path id="SimHei-91cf" d="M 5250 2500 
Q 5225 2200 5225 1700 
Q 5225 1225 5250 950 
L 3425 950 
L 3425 625 
L 4575 625 
Q 5000 625 5375 650 
L 5375 275 
Q 5025 300 4575 300 
L 3425 300 
L 3425 -75 
L 5125 -75 
Q 5525 -75 5925 -50 
L 5925 -425 
Q 5525 -400 5125 -400 
L 1275 -400 
Q 900 -400 475 -425 
L 475 -50 
Q 925 -50 1275 -75 
L 2975 -75 
L 2975 300 
L 1725 300 
Q 1350 300 975 250 
L 975 650 
Q 1375 625 1725 625 
L 2975 625 
L 2975 950 
L 1150 950 
Q 1175 1375 1175 1775 
Q 1175 2175 1150 2500 
L 5250 2500 
z
M 5200 4950 
Q 5175 4575 5175 4250 
Q 5175 3925 5200 3400 
L 1200 3400 
Q 1225 3925 1225 4250 
Q 1225 4575 1200 4950 
L 5200 4950 
z
M 4900 3100 
Q 5500 3125 6000 3150 
L 6000 2750 
Q 5500 2775 4925 2775 
L 1650 2775 
Q 975 2775 325 2750 
L 325 3150 
Q 975 3125 1650 3100 
L 4900 3100 
z
M 4725 3700 
L 4725 4025 
L 1675 4025 
L 1675 3700 
L 4725 3700 
z
M 4725 4350 
L 4725 4650 
L 1675 4650 
L 1675 4350 
L 4725 4350 
z
M 4750 1875 
L 4750 2175 
L 3425 2175 
L 3425 1875 
L 4750 1875 
z
M 2975 1875 
L 2975 2175 
L 1650 2175 
L 1650 1875 
L 2975 1875 
z
M 2975 1275 
L 2975 1550 
L 1650 1550 
L 1650 1275 
L 2975 1275 
z
M 4750 1275 
L 4750 1550 
L 3425 1550 
L 3425 1275 
L 4750 1275 
z
" transform="scale(0.015625)"/>
      </defs>
      <use xlink:href="#SimHei-4eba"/>
      <use xlink:href="#SimHei-53e3" x="100"/>
      <use xlink:href="#SimHei-6570" x="200"/>
      <use xlink:href="#SimHei-91cf" x="300"/>
     </g>
    </g>
    <g id="text_45">
     <!-- 1e9 -->
     <g style="fill: #262626" transform="translate(48.79575 24.912) scale(0.132 -0.132)">
      <defs>
       <path id="SimHei-65" d="M 2850 1075 
Q 2800 625 2450 350 
Q 2100 75 1625 75 
Q 1025 75 637 462 
Q 250 850 250 1525 
Q 250 2200 637 2587 
Q 1025 2975 1625 2975 
Q 2150 2975 2487 2637 
Q 2825 2300 2825 1525 
L 800 1525 
Q 800 975 1037 750 
Q 1275 525 1625 525 
Q 1900 525 2075 662 
Q 2250 800 2300 1075 
L 2850 1075 
z
M 2250 1925 
Q 2200 2275 2025 2412 
Q 1850 2550 1575 2550 
Q 1325 2550 1125 2412 
Q 925 2275 825 1925 
L 2250 1925 
z
" transform="scale(0.015625)"/>
      </defs>
      <use xlink:href="#SimHei-31"/>
      <use xlink:href="#SimHei-65" x="50"/>
      <use xlink:href="#SimHei-39" x="100"/>
     </g>
    </g>
   </g>
   <g id="PolyCollection_1"/>
   <g id="line2d_43">
    <path d="M 85.14358 347.907614 
L 95.382405 345.439774 
L 105.62123 342.784222 
L 115.860055 339.967154 
L 126.09888 337.054731 
L 136.337706 334.00755 
L 146.576531 330.913156 
L 156.815356 327.709861 
L 167.054181 324.428984 
L 177.293007 321.376648 
L 187.531832 318.619658 
L 197.770657 315.851633 
L 208.009482 312.566543 
L 218.248307 308.674378 
L 228.487133 304.650373 
L 238.725958 300.712743 
L 248.964783 296.808614 
L 259.203608 292.919919 
L 269.442434 288.899858 
L 279.681259 284.740012 
L 289.920084 280.530008 
L 300.158909 276.317852 
L 310.397734 272.113324 
L 320.63656 267.862997 
L 330.875385 263.623092 
L 341.11421 259.458976 
L 351.353035 255.342839 
L 361.591861 251.215537 
L 371.830686 247.053393 
L 382.069511 242.77632 
L 392.308336 238.358437 
L 402.547161 233.816933 
L 412.785987 229.121213 
L 423.024812 224.394943 
L 433.263637 219.665711 
L 443.502462 214.827024 
L 453.741288 209.851055 
L 463.980113 204.729206 
L 474.218938 199.585512 
L 484.457763 194.436151 
L 494.696589 189.226965 
L 504.935414 184.15309 
L 515.174239 179.283685 
L 525.413064 174.509651 
L 535.651889 169.817463 
L 545.890715 165.170493 
L 556.12954 160.555412 
L 566.368365 155.973563 
L 576.60719 151.42011 
L 586.846016 146.88838 
L 597.084841 142.317532 
L 607.323666 137.706823 
L 617.562491 133.106671 
L 627.801316 128.516078 
L 638.040142 123.905093 
L 648.278967 119.261903 
L 658.517792 114.572779 
L 668.756617 109.810851 
L 678.995443 104.986028 
L 689.234268 100.101503 
L 699.473093 95.183838 
L 709.711918 90.253476 
L 719.950743 85.263953 
L 730.189569 80.256251 
L 740.428394 75.275308 
L 750.667219 70.341487 
L 760.906044 65.447504 
L 771.14487 60.583281 
L 781.383695 55.853164 
L 791.62252 51.281156 
L 801.861345 46.999767 
L 812.10017 43.149886 
" clip-path="url(#p10db924e57)" style="fill: none; stroke: #4c72b0; stroke-width: 1.5; stroke-linecap: round"/>
   </g>
   <g id="patch_3">
    <path d="M 48.79575 363.1455 
L 48.79575 27.912 
" style="fill: none; stroke: #ffffff; stroke-width: 1.25; stroke-linejoin: miter; stroke-linecap: square"/>
   </g>
   <g id="patch_4">
    <path d="M 848.448 363.1455 
L 848.448 27.912 
" style="fill: none; stroke: #ffffff; stroke-width: 1.25; stroke-linejoin: miter; stroke-linecap: square"/>
   </g>
   <g id="patch_5">
    <path d="M 48.79575 363.1455 
L 848.448 363.1455 
" style="fill: none; stroke: #ffffff; stroke-width: 1.25; stroke-linejoin: miter; stroke-linecap: square"/>
   </g>
   <g id="patch_6">
    <path d="M 48.79575 27.912 
L 848.448 27.912 
" style="fill: none; stroke: #ffffff; stroke-width: 1.25; stroke-linejoin: miter; stroke-linecap: square"/>
   </g>
  </g>
 </g>
 <defs>
  <clipPath id="p10db924e57">
   <rect x="48.79575" y="27.912" width="799.65225" height="335.2335"/>
  </clipPath>
 </defs>
</svg>
