<?xml version="1.0" encoding="utf-8" standalone="no"?>
<!DOCTYPE svg PUBLIC "-//W3C//DTD SVG 1.1//EN"
  "http://www.w3.org/Graphics/SVG/1.1/DTD/svg11.dtd">
<svg xmlns:xlink="http://www.w3.org/1999/xlink" width="720pt" height="720pt" viewBox="0 0 720 720" xmlns="http://www.w3.org/2000/svg" version="1.1">
 <metadata>
  <rdf:RDF xmlns:dc="http://purl.org/dc/elements/1.1/" xmlns:cc="http://creativecommons.org/ns#" xmlns:rdf="http://www.w3.org/1999/02/22-rdf-syntax-ns#">
   <cc:Work>
    <dc:type rdf:resource="http://purl.org/dc/dcmitype/StillImage"/>
    <dc:date>2023-06-16T09:31:17.310029</dc:date>
    <dc:format>image/svg+xml</dc:format>
    <dc:creator>
     <cc:Agent>
      <dc:title>Matplotlib v3.7.1, https://matplotlib.org/</dc:title>
     </cc:Agent>
    </dc:creator>
   </cc:Work>
  </rdf:RDF>
 </metadata>
 <defs>
  <style type="text/css">*{stroke-linejoin: round; stroke-linecap: butt}</style>
 </defs>
 <g id="figure_1">
  <g id="patch_1">
   <path d="M 0 720 
L 720 720 
L 720 0 
L 0 0 
z
" style="fill: #ffffff"/>
  </g>
  <g id="axes_1">
   <g id="patch_2">
    <path d="M 52.93575 246.11775 
L 704.448 246.11775 
L 704.448 27.912 
L 52.93575 27.912 
z
" style="fill: #eaeaf2"/>
   </g>
   <g id="matplotlib.axis_1">
    <g id="xtick_1">
     <g id="text_1">
      <!-- China -->
      <g style="fill: #262626" transform="translate(72.936056 288.61775) rotate(-90) scale(0.132 -0.132)">
       <defs>
        <path id="SimHei-43" d="M 2975 1825 
Q 2950 875 2575 475 
Q 2200 75 1675 75 
Q 1075 75 650 562 
Q 225 1050 225 2125 
Q 225 3300 637 3875 
Q 1050 4450 1700 4450 
Q 2250 4450 2612 4037 
Q 2975 3625 2950 2875 
L 2400 2875 
Q 2400 3425 2225 3700 
Q 2050 3975 1700 3975 
Q 1300 3975 1062 3562 
Q 825 3150 825 2175 
Q 825 1275 1062 912 
Q 1300 550 1675 550 
Q 1950 550 2175 812 
Q 2400 1075 2400 1825 
L 2975 1825 
z
" transform="scale(0.015625)"/>
        <path id="SimHei-68" d="M 2800 125 
L 2300 125 
L 2300 1925 
Q 2300 2225 2150 2400 
Q 2000 2575 1750 2575 
Q 1425 2575 1137 2237 
Q 850 1900 850 1400 
L 850 125 
L 350 125 
L 350 4400 
L 850 4400 
L 850 2400 
Q 1050 2675 1287 2825 
Q 1525 2975 1900 2975 
Q 2350 2975 2575 2725 
Q 2800 2475 2800 2100 
L 2800 125 
z
" transform="scale(0.015625)"/>
        <path id="SimHei-69" d="M 1800 3725 
L 1300 3725 
L 1300 4375 
L 1800 4375 
L 1800 3725 
z
M 1800 125 
L 1300 125 
L 1300 2925 
L 1800 2925 
L 1800 125 
z
" transform="scale(0.015625)"/>
        <path id="SimHei-6e" d="M 2800 125 
L 2300 125 
L 2300 1925 
Q 2300 2225 2150 2400 
Q 2000 2575 1750 2575 
Q 1425 2575 1137 2237 
Q 850 1900 850 1400 
L 850 125 
L 350 125 
L 350 2925 
L 850 2925 
L 850 2400 
Q 1050 2675 1287 2825 
Q 1525 2975 1900 2975 
Q 2350 2975 2575 2725 
Q 2800 2475 2800 2100 
L 2800 125 
z
" transform="scale(0.015625)"/>
        <path id="SimHei-61" d="M 2875 125 
L 2275 125 
Q 2225 175 2200 262 
Q 2175 350 2175 475 
Q 2000 275 1750 175 
Q 1500 75 1225 75 
Q 825 75 550 275 
Q 275 475 275 850 
Q 275 1225 525 1450 
Q 775 1675 1300 1750 
Q 1650 1800 1912 1875 
Q 2175 1950 2175 2075 
Q 2175 2225 2062 2375 
Q 1950 2525 1575 2525 
Q 1275 2525 1137 2412 
Q 1000 2300 950 2100 
L 400 2100 
Q 450 2500 762 2737 
Q 1075 2975 1575 2975 
Q 2125 2975 2400 2725 
Q 2675 2475 2675 2025 
L 2675 650 
Q 2675 500 2725 375 
Q 2775 250 2875 125 
z
M 2175 1050 
L 2175 1550 
Q 2025 1500 1887 1462 
Q 1750 1425 1425 1375 
Q 1050 1325 937 1200 
Q 825 1075 825 900 
Q 825 750 937 637 
Q 1050 525 1275 525 
Q 1500 525 1762 650 
Q 2025 775 2175 1050 
z
" transform="scale(0.015625)"/>
       </defs>
       <use xlink:href="#SimHei-43"/>
       <use xlink:href="#SimHei-68" x="50"/>
       <use xlink:href="#SimHei-69" x="100"/>
       <use xlink:href="#SimHei-6e" x="150"/>
       <use xlink:href="#SimHei-61" x="200"/>
      </g>
     </g>
    </g>
    <g id="xtick_2">
     <g id="text_2">
      <!-- India -->
      <g style="fill: #262626" transform="translate(105.511669 288.61775) rotate(-90) scale(0.132 -0.132)">
       <defs>
        <path id="SimHei-49" d="M 1850 125 
L 1275 125 
L 1275 4400 
L 1850 4400 
L 1850 125 
z
" transform="scale(0.015625)"/>
        <path id="SimHei-64" d="M 2750 125 
L 2250 125 
L 2250 500 
Q 2100 275 1900 175 
Q 1700 75 1425 75 
Q 925 75 575 437 
Q 225 800 225 1525 
Q 225 2250 575 2625 
Q 925 3000 1425 3000 
Q 1700 3000 1900 2887 
Q 2100 2775 2250 2550 
L 2250 4400 
L 2750 4400 
L 2750 125 
z
M 2250 1525 
Q 2250 2000 2037 2275 
Q 1825 2550 1525 2550 
Q 1150 2550 962 2275 
Q 775 2000 775 1525 
Q 775 1050 962 787 
Q 1150 525 1525 525 
Q 1825 525 2037 787 
Q 2250 1050 2250 1525 
z
" transform="scale(0.015625)"/>
       </defs>
       <use xlink:href="#SimHei-49"/>
       <use xlink:href="#SimHei-6e" x="50"/>
       <use xlink:href="#SimHei-64" x="100"/>
       <use xlink:href="#SimHei-69" x="150"/>
       <use xlink:href="#SimHei-61" x="200"/>
      </g>
     </g>
    </g>
    <g id="xtick_3">
     <g id="text_3">
      <!-- United Sta... -->
      <g style="fill: #262626" transform="translate(138.087281 341.41775) rotate(-90) scale(0.132 -0.132)">
       <defs>
        <path id="SimHei-55" d="M 2875 1375 
Q 2875 775 2562 425 
Q 2250 75 1575 75 
Q 900 75 587 425 
Q 275 775 275 1375 
L 275 4400 
L 850 4400 
L 850 1375 
Q 850 950 1050 750 
Q 1250 550 1575 550 
Q 1900 550 2100 750 
Q 2300 950 2300 1375 
L 2300 4400 
L 2875 4400 
L 2875 1375 
z
" transform="scale(0.015625)"/>
        <path id="SimHei-74" d="M 2750 200 
Q 2625 150 2462 112 
Q 2300 75 2025 75 
Q 1575 75 1300 325 
Q 1025 575 1025 1025 
L 1025 2525 
L 175 2525 
L 175 2925 
L 1025 2925 
L 1025 3900 
L 1525 3900 
L 1525 2925 
L 2550 2925 
L 2550 2525 
L 1525 2525 
L 1525 1000 
Q 1525 800 1625 662 
Q 1725 525 2000 525 
Q 2275 525 2450 575 
Q 2625 625 2750 700 
L 2750 200 
z
" transform="scale(0.015625)"/>
        <path id="SimHei-65" d="M 2850 1075 
Q 2800 625 2450 350 
Q 2100 75 1625 75 
Q 1025 75 637 462 
Q 250 850 250 1525 
Q 250 2200 637 2587 
Q 1025 2975 1625 2975 
Q 2150 2975 2487 2637 
Q 2825 2300 2825 1525 
L 800 1525 
Q 800 975 1037 750 
Q 1275 525 1625 525 
Q 1900 525 2075 662 
Q 2250 800 2300 1075 
L 2850 1075 
z
M 2250 1925 
Q 2200 2275 2025 2412 
Q 1850 2550 1575 2550 
Q 1325 2550 1125 2412 
Q 925 2275 825 1925 
L 2250 1925 
z
" transform="scale(0.015625)"/>
        <path id="SimHei-20" transform="scale(0.015625)"/>
        <path id="SimHei-53" d="M 2900 1325 
Q 2900 750 2537 412 
Q 2175 75 1550 75 
Q 925 75 575 425 
Q 225 775 225 1300 
L 225 1475 
L 800 1475 
L 800 1325 
Q 800 950 1025 750 
Q 1250 550 1550 550 
Q 1950 550 2137 762 
Q 2325 975 2325 1275 
Q 2325 1525 2100 1737 
Q 1875 1950 1450 2125 
Q 850 2350 587 2625 
Q 325 2900 325 3275 
Q 325 3800 687 4125 
Q 1050 4450 1550 4450 
Q 2200 4450 2487 4062 
Q 2775 3675 2775 3225 
L 2200 3225 
Q 2225 3500 2050 3725 
Q 1875 3950 1550 3950 
Q 1250 3950 1075 3787 
Q 900 3625 900 3350 
Q 900 3125 1037 2962 
Q 1175 2800 1750 2575 
Q 2300 2350 2600 2037 
Q 2900 1725 2900 1325 
z
" transform="scale(0.015625)"/>
        <path id="SimHei-2e" d="M 1075 125 
L 500 125 
L 500 675 
L 1075 675 
L 1075 125 
z
" transform="scale(0.015625)"/>
       </defs>
       <use xlink:href="#SimHei-55"/>
       <use xlink:href="#SimHei-6e" x="50"/>
       <use xlink:href="#SimHei-69" x="100"/>
       <use xlink:href="#SimHei-74" x="150"/>
       <use xlink:href="#SimHei-65" x="200"/>
       <use xlink:href="#SimHei-64" x="250"/>
       <use xlink:href="#SimHei-20" x="300"/>
       <use xlink:href="#SimHei-53" x="350"/>
       <use xlink:href="#SimHei-74" x="400"/>
       <use xlink:href="#SimHei-61" x="450"/>
       <use xlink:href="#SimHei-2e" x="500"/>
       <use xlink:href="#SimHei-2e" x="550"/>
       <use xlink:href="#SimHei-2e" x="600"/>
      </g>
     </g>
    </g>
    <g id="xtick_4">
     <g id="text_4">
      <!-- Indonesia -->
      <g style="fill: #262626" transform="translate(170.662894 315.01775) rotate(-90) scale(0.132 -0.132)">
       <defs>
        <path id="SimHei-6f" d="M 2925 1525 
Q 2925 875 2525 475 
Q 2125 75 1575 75 
Q 1025 75 625 475 
Q 225 875 225 1525 
Q 225 2175 625 2575 
Q 1025 2975 1575 2975 
Q 2125 2975 2525 2575 
Q 2925 2175 2925 1525 
z
M 2375 1525 
Q 2375 2025 2125 2275 
Q 1875 2525 1575 2525 
Q 1275 2525 1025 2275 
Q 775 2025 775 1525 
Q 775 1025 1025 775 
Q 1275 525 1575 525 
Q 1875 525 2125 775 
Q 2375 1025 2375 1525 
z
" transform="scale(0.015625)"/>
        <path id="SimHei-73" d="M 2750 900 
Q 2750 500 2437 287 
Q 2125 75 1650 75 
Q 1050 75 725 312 
Q 400 550 400 1000 
L 900 1000 
Q 900 700 1112 600 
Q 1325 500 1625 500 
Q 1925 500 2075 612 
Q 2225 725 2225 900 
Q 2225 1025 2100 1150 
Q 1975 1275 1475 1350 
Q 900 1425 687 1637 
Q 475 1850 475 2200 
Q 475 2500 762 2737 
Q 1050 2975 1600 2975 
Q 2100 2975 2387 2750 
Q 2675 2525 2675 2150 
L 2175 2150 
Q 2175 2375 2012 2462 
Q 1850 2550 1600 2550 
Q 1275 2550 1137 2437 
Q 1000 2325 1000 2175 
Q 1000 2000 1125 1900 
Q 1250 1800 1650 1750 
Q 2300 1650 2525 1437 
Q 2750 1225 2750 900 
z
" transform="scale(0.015625)"/>
       </defs>
       <use xlink:href="#SimHei-49"/>
       <use xlink:href="#SimHei-6e" x="50"/>
       <use xlink:href="#SimHei-64" x="100"/>
       <use xlink:href="#SimHei-6f" x="150"/>
       <use xlink:href="#SimHei-6e" x="200"/>
       <use xlink:href="#SimHei-65" x="250"/>
       <use xlink:href="#SimHei-73" x="300"/>
       <use xlink:href="#SimHei-69" x="350"/>
       <use xlink:href="#SimHei-61" x="400"/>
      </g>
     </g>
    </g>
    <g id="xtick_5">
     <g id="text_5">
      <!-- Pakistan -->
      <g style="fill: #262626" transform="translate(203.238506 308.41775) rotate(-90) scale(0.132 -0.132)">
       <defs>
        <path id="SimHei-50" d="M 2950 3100 
Q 2950 2500 2600 2150 
Q 2250 1800 1625 1800 
L 900 1800 
L 900 125 
L 325 125 
L 325 4400 
L 1625 4400 
Q 2250 4400 2600 4050 
Q 2950 3700 2950 3100 
z
M 2375 3100 
Q 2375 3575 2150 3750 
Q 1925 3925 1475 3925 
L 900 3925 
L 900 2275 
L 1475 2275 
Q 1925 2275 2150 2450 
Q 2375 2625 2375 3100 
z
" transform="scale(0.015625)"/>
        <path id="SimHei-6b" d="M 2925 125 
L 2350 125 
L 1450 1650 
L 875 1100 
L 875 125 
L 375 125 
L 375 4400 
L 875 4400 
L 875 1675 
L 2125 2925 
L 2750 2925 
L 1775 1975 
L 2925 125 
z
" transform="scale(0.015625)"/>
       </defs>
       <use xlink:href="#SimHei-50"/>
       <use xlink:href="#SimHei-61" x="50"/>
       <use xlink:href="#SimHei-6b" x="100"/>
       <use xlink:href="#SimHei-69" x="150"/>
       <use xlink:href="#SimHei-73" x="200"/>
       <use xlink:href="#SimHei-74" x="250"/>
       <use xlink:href="#SimHei-61" x="300"/>
       <use xlink:href="#SimHei-6e" x="350"/>
      </g>
     </g>
    </g>
    <g id="xtick_6">
     <g id="text_6">
      <!-- Brazil -->
      <g style="fill: #262626" transform="translate(235.814119 295.21775) rotate(-90) scale(0.132 -0.132)">
       <defs>
        <path id="SimHei-42" d="M 2950 1400 
Q 2950 675 2550 400 
Q 2150 125 1525 125 
L 275 125 
L 275 4400 
L 1575 4400 
Q 2200 4400 2512 4075 
Q 2825 3750 2825 3300 
Q 2825 2850 2612 2637 
Q 2400 2425 2175 2350 
Q 2475 2275 2712 2037 
Q 2950 1800 2950 1400 
z
M 2250 3300 
Q 2250 3625 2062 3775 
Q 1875 3925 1600 3925 
L 850 3925 
L 850 2600 
L 1575 2600 
Q 1850 2600 2050 2762 
Q 2250 2925 2250 3300 
z
M 2350 1400 
Q 2350 1800 2087 1962 
Q 1825 2125 1500 2125 
L 850 2125 
L 850 600 
L 1425 600 
Q 1875 600 2112 775 
Q 2350 950 2350 1400 
z
" transform="scale(0.015625)"/>
        <path id="SimHei-72" d="M 2500 2425 
Q 2025 2500 1700 2287 
Q 1375 2075 1150 1550 
L 1150 125 
L 650 125 
L 650 2925 
L 1150 2925 
L 1150 2200 
Q 1375 2600 1712 2787 
Q 2050 2975 2500 2975 
L 2500 2425 
z
" transform="scale(0.015625)"/>
        <path id="SimHei-7a" d="M 2775 125 
L 350 125 
L 350 525 
L 2050 2525 
L 450 2525 
L 450 2925 
L 2650 2925 
L 2650 2525 
L 950 525 
L 2775 525 
L 2775 125 
z
" transform="scale(0.015625)"/>
        <path id="SimHei-6c" d="M 1825 125 
L 1325 125 
L 1325 4400 
L 1825 4400 
L 1825 125 
z
" transform="scale(0.015625)"/>
       </defs>
       <use xlink:href="#SimHei-42"/>
       <use xlink:href="#SimHei-72" x="50"/>
       <use xlink:href="#SimHei-61" x="100"/>
       <use xlink:href="#SimHei-7a" x="150"/>
       <use xlink:href="#SimHei-69" x="200"/>
       <use xlink:href="#SimHei-6c" x="250"/>
      </g>
     </g>
    </g>
    <g id="xtick_7">
     <g id="text_7">
      <!-- Nigeria -->
      <g style="fill: #262626" transform="translate(268.389731 301.81775) rotate(-90) scale(0.132 -0.132)">
       <defs>
        <path id="SimHei-4e" d="M 2850 125 
L 2225 125 
L 850 3225 
L 825 3225 
L 825 125 
L 250 125 
L 250 4400 
L 875 4400 
L 2250 1300 
L 2275 1300 
L 2275 4400 
L 2850 4400 
L 2850 125 
z
" transform="scale(0.015625)"/>
        <path id="SimHei-67" d="M 2975 2500 
Q 2800 2550 2637 2562 
Q 2475 2575 2300 2525 
Q 2375 2450 2425 2337 
Q 2475 2225 2475 2000 
Q 2475 1575 2187 1300 
Q 1900 1025 1475 1025 
Q 1375 1025 1212 1062 
Q 1050 1100 950 1150 
Q 875 1100 850 1050 
Q 825 1000 825 925 
Q 825 800 1000 737 
Q 1175 675 1625 675 
Q 2350 675 2612 475 
Q 2875 275 2875 -25 
Q 2875 -425 2487 -612 
Q 2100 -800 1575 -800 
Q 900 -800 575 -625 
Q 250 -450 250 -150 
Q 250 0 375 150 
Q 500 300 700 400 
Q 550 475 462 587 
Q 375 700 375 875 
Q 375 1025 487 1137 
Q 600 1250 750 1325 
Q 625 1450 550 1625 
Q 475 1800 475 2000 
Q 475 2425 762 2700 
Q 1050 2975 1475 2975 
Q 1700 2975 1862 2912 
Q 2025 2850 2150 2725 
Q 2350 2875 2550 2937 
Q 2750 3000 2975 2975 
L 2975 2500 
z
M 1975 2000 
Q 1975 2250 1850 2400 
Q 1725 2550 1475 2550 
Q 1225 2550 1100 2400 
Q 975 2250 975 2000 
Q 975 1750 1100 1600 
Q 1225 1450 1475 1450 
Q 1725 1450 1850 1600 
Q 1975 1750 1975 2000 
z
M 2400 -75 
Q 2400 25 2287 125 
Q 2175 225 1725 225 
Q 1625 225 1450 237 
Q 1275 250 1050 275 
Q 850 200 775 100 
Q 700 0 700 -100 
Q 700 -250 900 -350 
Q 1100 -450 1600 -450 
Q 2025 -450 2212 -337 
Q 2400 -225 2400 -75 
z
" transform="scale(0.015625)"/>
       </defs>
       <use xlink:href="#SimHei-4e"/>
       <use xlink:href="#SimHei-69" x="50"/>
       <use xlink:href="#SimHei-67" x="100"/>
       <use xlink:href="#SimHei-65" x="150"/>
       <use xlink:href="#SimHei-72" x="200"/>
       <use xlink:href="#SimHei-69" x="250"/>
       <use xlink:href="#SimHei-61" x="300"/>
      </g>
     </g>
    </g>
    <g id="xtick_8">
     <g id="text_8">
      <!-- Bangladesh -->
      <g style="fill: #262626" transform="translate(300.965344 321.61775) rotate(-90) scale(0.132 -0.132)">
       <use xlink:href="#SimHei-42"/>
       <use xlink:href="#SimHei-61" x="50"/>
       <use xlink:href="#SimHei-6e" x="100"/>
       <use xlink:href="#SimHei-67" x="150"/>
       <use xlink:href="#SimHei-6c" x="200"/>
       <use xlink:href="#SimHei-61" x="250"/>
       <use xlink:href="#SimHei-64" x="300"/>
       <use xlink:href="#SimHei-65" x="350"/>
       <use xlink:href="#SimHei-73" x="400"/>
       <use xlink:href="#SimHei-68" x="450"/>
      </g>
     </g>
    </g>
    <g id="xtick_9">
     <g id="text_9">
      <!-- Russia -->
      <g style="fill: #262626" transform="translate(333.540956 295.21775) rotate(-90) scale(0.132 -0.132)">
       <defs>
        <path id="SimHei-52" d="M 3000 125 
L 2400 125 
L 1500 1975 
L 850 1975 
L 850 125 
L 275 125 
L 275 4400 
L 1525 4400 
Q 2125 4400 2500 4112 
Q 2875 3825 2875 3175 
Q 2875 2675 2625 2400 
Q 2375 2125 2050 2050 
L 3000 125 
z
M 2300 3175 
Q 2300 3525 2087 3725 
Q 1875 3925 1400 3925 
L 850 3925 
L 850 2450 
L 1550 2450 
Q 1850 2450 2075 2612 
Q 2300 2775 2300 3175 
z
" transform="scale(0.015625)"/>
        <path id="SimHei-75" d="M 2800 125 
L 2300 125 
L 2300 650 
Q 2100 375 1862 225 
Q 1625 75 1250 75 
Q 800 75 575 325 
Q 350 575 350 950 
L 350 2925 
L 850 2925 
L 850 1125 
Q 850 825 1000 650 
Q 1150 475 1400 475 
Q 1725 475 2012 812 
Q 2300 1150 2300 1650 
L 2300 2925 
L 2800 2925 
L 2800 125 
z
" transform="scale(0.015625)"/>
       </defs>
       <use xlink:href="#SimHei-52"/>
       <use xlink:href="#SimHei-75" x="50"/>
       <use xlink:href="#SimHei-73" x="100"/>
       <use xlink:href="#SimHei-73" x="150"/>
       <use xlink:href="#SimHei-69" x="200"/>
       <use xlink:href="#SimHei-61" x="250"/>
      </g>
     </g>
    </g>
    <g id="xtick_10">
     <g id="text_10">
      <!-- Mexico -->
      <g style="fill: #262626" transform="translate(366.116569 295.21775) rotate(-90) scale(0.132 -0.132)">
       <defs>
        <path id="SimHei-4d" d="M 2925 125 
L 2425 125 
L 2425 3175 
L 2375 3175 
L 1775 125 
L 1375 125 
L 775 3175 
L 725 3175 
L 725 125 
L 225 125 
L 225 4400 
L 1000 4400 
L 1550 1575 
L 1600 1575 
L 2150 4400 
L 2925 4400 
L 2925 125 
z
" transform="scale(0.015625)"/>
        <path id="SimHei-78" d="M 2875 125 
L 2275 125 
L 1550 1200 
L 825 125 
L 225 125 
L 1250 1550 
L 300 2925 
L 900 2925 
L 1550 1875 
L 2200 2925 
L 2800 2925 
L 1850 1550 
L 2875 125 
z
" transform="scale(0.015625)"/>
        <path id="SimHei-63" d="M 2850 1250 
Q 2850 725 2487 400 
Q 2125 75 1575 75 
Q 1025 75 625 462 
Q 225 850 225 1525 
Q 225 2200 625 2587 
Q 1025 2975 1575 2975 
Q 2125 2975 2450 2687 
Q 2775 2400 2775 2000 
L 2225 2000 
Q 2200 2300 2012 2412 
Q 1825 2525 1575 2525 
Q 1275 2525 1025 2287 
Q 775 2050 775 1525 
Q 775 1000 1025 762 
Q 1275 525 1575 525 
Q 1900 525 2100 700 
Q 2300 875 2300 1250 
L 2850 1250 
z
" transform="scale(0.015625)"/>
       </defs>
       <use xlink:href="#SimHei-4d"/>
       <use xlink:href="#SimHei-65" x="50"/>
       <use xlink:href="#SimHei-78" x="100"/>
       <use xlink:href="#SimHei-69" x="150"/>
       <use xlink:href="#SimHei-63" x="200"/>
       <use xlink:href="#SimHei-6f" x="250"/>
      </g>
     </g>
    </g>
    <g id="xtick_11">
     <g id="text_11">
      <!-- Japan -->
      <g style="fill: #262626" transform="translate(398.692181 288.61775) rotate(-90) scale(0.132 -0.132)">
       <defs>
        <path id="SimHei-4a" d="M 2800 1550 
Q 2800 775 2462 425 
Q 2125 75 1550 75 
Q 1025 75 675 412 
Q 325 750 325 1500 
L 325 1775 
L 900 1775 
L 900 1425 
Q 900 975 1087 787 
Q 1275 600 1525 600 
Q 1875 600 2050 800 
Q 2225 1000 2225 1525 
L 2225 4400 
L 2800 4400 
L 2800 1550 
z
" transform="scale(0.015625)"/>
        <path id="SimHei-70" d="M 2825 1525 
Q 2825 800 2475 425 
Q 2125 50 1625 50 
Q 1350 50 1150 162 
Q 950 275 800 500 
L 800 -800 
L 300 -800 
L 300 2925 
L 800 2925 
L 800 2550 
Q 950 2775 1150 2875 
Q 1350 2975 1625 2975 
Q 2125 2975 2475 2612 
Q 2825 2250 2825 1525 
z
M 2275 1525 
Q 2275 2000 2087 2262 
Q 1900 2525 1525 2525 
Q 1225 2525 1012 2262 
Q 800 2000 800 1525 
Q 800 1050 1012 775 
Q 1225 500 1525 500 
Q 1900 500 2087 775 
Q 2275 1050 2275 1525 
z
" transform="scale(0.015625)"/>
       </defs>
       <use xlink:href="#SimHei-4a"/>
       <use xlink:href="#SimHei-61" x="50"/>
       <use xlink:href="#SimHei-70" x="100"/>
       <use xlink:href="#SimHei-61" x="150"/>
       <use xlink:href="#SimHei-6e" x="200"/>
      </g>
     </g>
    </g>
    <g id="xtick_12">
     <g id="text_12">
      <!-- Ethiopia -->
      <g style="fill: #262626" transform="translate(431.267794 308.41775) rotate(-90) scale(0.132 -0.132)">
       <defs>
        <path id="SimHei-45" d="M 2900 125 
L 350 125 
L 350 4400 
L 2775 4400 
L 2775 3925 
L 925 3925 
L 925 2600 
L 2625 2600 
L 2625 2125 
L 925 2125 
L 925 600 
L 2900 600 
L 2900 125 
z
" transform="scale(0.015625)"/>
       </defs>
       <use xlink:href="#SimHei-45"/>
       <use xlink:href="#SimHei-74" x="50"/>
       <use xlink:href="#SimHei-68" x="100"/>
       <use xlink:href="#SimHei-69" x="150"/>
       <use xlink:href="#SimHei-6f" x="200"/>
       <use xlink:href="#SimHei-70" x="250"/>
       <use xlink:href="#SimHei-69" x="300"/>
       <use xlink:href="#SimHei-61" x="350"/>
      </g>
     </g>
    </g>
    <g id="xtick_13">
     <g id="text_13">
      <!-- Philippine... -->
      <g style="fill: #262626" transform="translate(463.843406 341.41775) rotate(-90) scale(0.132 -0.132)">
       <use xlink:href="#SimHei-50"/>
       <use xlink:href="#SimHei-68" x="50"/>
       <use xlink:href="#SimHei-69" x="100"/>
       <use xlink:href="#SimHei-6c" x="150"/>
       <use xlink:href="#SimHei-69" x="200"/>
       <use xlink:href="#SimHei-70" x="250"/>
       <use xlink:href="#SimHei-70" x="300"/>
       <use xlink:href="#SimHei-69" x="350"/>
       <use xlink:href="#SimHei-6e" x="400"/>
       <use xlink:href="#SimHei-65" x="450"/>
       <use xlink:href="#SimHei-2e" x="500"/>
       <use xlink:href="#SimHei-2e" x="550"/>
       <use xlink:href="#SimHei-2e" x="600"/>
      </g>
     </g>
    </g>
    <g id="xtick_14">
     <g id="text_14">
      <!-- Egypt -->
      <g style="fill: #262626" transform="translate(496.419019 288.61775) rotate(-90) scale(0.132 -0.132)">
       <defs>
        <path id="SimHei-79" d="M 2900 2925 
L 1750 -100 
Q 1650 -450 1450 -625 
Q 1250 -800 950 -800 
Q 825 -800 712 -787 
Q 600 -775 500 -725 
L 500 -225 
Q 600 -275 700 -300 
Q 800 -325 875 -325 
Q 1075 -325 1150 -262 
Q 1225 -200 1300 25 
L 200 2925 
L 750 2925 
L 1550 725 
L 1575 725 
L 2350 2925 
L 2900 2925 
z
" transform="scale(0.015625)"/>
       </defs>
       <use xlink:href="#SimHei-45"/>
       <use xlink:href="#SimHei-67" x="50"/>
       <use xlink:href="#SimHei-79" x="100"/>
       <use xlink:href="#SimHei-70" x="150"/>
       <use xlink:href="#SimHei-74" x="200"/>
      </g>
     </g>
    </g>
    <g id="xtick_15">
     <g id="text_15">
      <!-- Vietnam -->
      <g style="fill: #262626" transform="translate(528.994631 301.81775) rotate(-90) scale(0.132 -0.132)">
       <defs>
        <path id="SimHei-56" d="M 3050 4400 
L 1800 75 
L 1300 75 
L 50 4400 
L 650 4400 
L 1525 1125 
L 1575 1125 
L 2450 4400 
L 3050 4400 
z
" transform="scale(0.015625)"/>
        <path id="SimHei-6d" d="M 3050 125 
L 2550 125 
L 2550 2150 
Q 2550 2300 2500 2400 
Q 2450 2500 2300 2500 
Q 2125 2500 1975 2312 
Q 1825 2125 1825 1825 
L 1825 125 
L 1325 125 
L 1325 2150 
Q 1325 2300 1275 2400 
Q 1225 2500 1075 2500 
Q 900 2500 750 2312 
Q 600 2125 600 1825 
L 600 125 
L 100 125 
L 100 2925 
L 600 2925 
L 600 2550 
Q 725 2750 900 2862 
Q 1075 2975 1275 2975 
Q 1475 2975 1612 2862 
Q 1750 2750 1800 2550 
Q 1925 2750 2087 2862 
Q 2250 2975 2450 2975 
Q 2750 2975 2900 2812 
Q 3050 2650 3050 2350 
L 3050 125 
z
" transform="scale(0.015625)"/>
       </defs>
       <use xlink:href="#SimHei-56"/>
       <use xlink:href="#SimHei-69" x="50"/>
       <use xlink:href="#SimHei-65" x="100"/>
       <use xlink:href="#SimHei-74" x="150"/>
       <use xlink:href="#SimHei-6e" x="200"/>
       <use xlink:href="#SimHei-61" x="250"/>
       <use xlink:href="#SimHei-6d" x="300"/>
      </g>
     </g>
    </g>
    <g id="xtick_16">
     <g id="text_16">
      <!-- Democratic... -->
      <g style="fill: #262626" transform="translate(561.570244 341.41775) rotate(-90) scale(0.132 -0.132)">
       <defs>
        <path id="SimHei-44" d="M 2925 2250 
Q 2925 1100 2437 612 
Q 1950 125 1125 125 
L 275 125 
L 275 4400 
L 1125 4400 
Q 2050 4400 2487 3900 
Q 2925 3400 2925 2250 
z
M 2325 2250 
Q 2325 3175 2025 3550 
Q 1725 3925 1125 3925 
L 850 3925 
L 850 600 
L 1125 600 
Q 1725 600 2025 962 
Q 2325 1325 2325 2250 
z
" transform="scale(0.015625)"/>
       </defs>
       <use xlink:href="#SimHei-44"/>
       <use xlink:href="#SimHei-65" x="50"/>
       <use xlink:href="#SimHei-6d" x="100"/>
       <use xlink:href="#SimHei-6f" x="150"/>
       <use xlink:href="#SimHei-63" x="200"/>
       <use xlink:href="#SimHei-72" x="250"/>
       <use xlink:href="#SimHei-61" x="300"/>
       <use xlink:href="#SimHei-74" x="350"/>
       <use xlink:href="#SimHei-69" x="400"/>
       <use xlink:href="#SimHei-63" x="450"/>
       <use xlink:href="#SimHei-2e" x="500"/>
       <use xlink:href="#SimHei-2e" x="550"/>
       <use xlink:href="#SimHei-2e" x="600"/>
      </g>
     </g>
    </g>
    <g id="xtick_17">
     <g id="text_17">
      <!-- Iran -->
      <g style="fill: #262626" transform="translate(594.145856 282.01775) rotate(-90) scale(0.132 -0.132)">
       <use xlink:href="#SimHei-49"/>
       <use xlink:href="#SimHei-72" x="50"/>
       <use xlink:href="#SimHei-61" x="100"/>
       <use xlink:href="#SimHei-6e" x="150"/>
      </g>
     </g>
    </g>
    <g id="xtick_18">
     <g id="text_18">
      <!-- Turkey -->
      <g style="fill: #262626" transform="translate(626.721469 295.21775) rotate(-90) scale(0.132 -0.132)">
       <defs>
        <path id="SimHei-54" d="M 2850 3925 
L 1850 3925 
L 1850 125 
L 1275 125 
L 1275 3925 
L 275 3925 
L 275 4400 
L 2850 4400 
L 2850 3925 
z
" transform="scale(0.015625)"/>
       </defs>
       <use xlink:href="#SimHei-54"/>
       <use xlink:href="#SimHei-75" x="50"/>
       <use xlink:href="#SimHei-72" x="100"/>
       <use xlink:href="#SimHei-6b" x="150"/>
       <use xlink:href="#SimHei-65" x="200"/>
       <use xlink:href="#SimHei-79" x="250"/>
      </g>
     </g>
    </g>
    <g id="xtick_19">
     <g id="text_19">
      <!-- Germany -->
      <g style="fill: #262626" transform="translate(659.348644 301.81775) rotate(-90) scale(0.132 -0.132)">
       <defs>
        <path id="SimHei-47" d="M 2850 75 
L 2425 75 
L 2350 425 
Q 2250 275 2037 175 
Q 1825 75 1575 75 
Q 1050 75 637 562 
Q 225 1050 225 2125 
Q 225 3300 600 3875 
Q 975 4450 1625 4450 
Q 2200 4450 2525 4025 
Q 2850 3600 2850 2925 
L 2300 2925 
Q 2300 3450 2125 3712 
Q 1950 3975 1625 3975 
Q 1225 3975 1025 3562 
Q 825 3150 825 2175 
Q 825 1250 1075 900 
Q 1325 550 1650 550 
Q 1975 550 2162 787 
Q 2350 1025 2350 1525 
L 2350 1800 
L 1575 1800 
L 1575 2275 
L 2850 2275 
L 2850 75 
z
" transform="scale(0.015625)"/>
       </defs>
       <use xlink:href="#SimHei-47"/>
       <use xlink:href="#SimHei-65" x="50"/>
       <use xlink:href="#SimHei-72" x="100"/>
       <use xlink:href="#SimHei-6d" x="150"/>
       <use xlink:href="#SimHei-61" x="200"/>
       <use xlink:href="#SimHei-6e" x="250"/>
       <use xlink:href="#SimHei-79" x="300"/>
      </g>
     </g>
    </g>
    <g id="xtick_20">
     <g id="text_20">
      <!-- Thailand -->
      <g style="fill: #262626" transform="translate(691.872694 308.41775) rotate(-90) scale(0.132 -0.132)">
       <use xlink:href="#SimHei-54"/>
       <use xlink:href="#SimHei-68" x="50"/>
       <use xlink:href="#SimHei-61" x="100"/>
       <use xlink:href="#SimHei-69" x="150"/>
       <use xlink:href="#SimHei-6c" x="200"/>
       <use xlink:href="#SimHei-61" x="250"/>
       <use xlink:href="#SimHei-6e" x="300"/>
       <use xlink:href="#SimHei-64" x="350"/>
      </g>
     </g>
    </g>
    <g id="text_21">
     <!-- 国家 -->
     <g style="fill: #262626" transform="translate(364.291875 357.00525) scale(0.144 -0.144)">
      <defs>
       <path id="SimHei-56fd" d="M 5775 4975 
Q 5750 4350 5750 3575 
L 5750 900 
Q 5750 125 5775 -625 
L 5275 -625 
L 5275 -275 
L 1125 -275 
L 1125 -650 
L 625 -650 
Q 650 125 650 950 
L 650 3575 
Q 650 4325 625 4975 
L 5775 4975 
z
M 5275 100 
L 5275 4600 
L 1125 4600 
L 1125 100 
L 5275 100 
z
M 3975 3925 
Q 4350 3925 4775 3950 
L 4775 3500 
Q 4400 3525 3975 3525 
L 3350 3525 
L 3350 2700 
L 3800 2700 
Q 4250 2700 4650 2725 
L 4650 2275 
Q 4250 2300 3800 2300 
L 3350 2300 
L 3350 1175 
L 4050 1175 
Q 4500 1175 4900 1200 
L 4900 750 
Q 4525 775 4050 775 
L 2350 775 
Q 1925 775 1500 750 
L 1500 1200 
Q 1925 1175 2350 1175 
L 2900 1175 
L 2900 2300 
L 2550 2300 
Q 2125 2300 1750 2275 
L 1750 2725 
Q 2125 2700 2550 2700 
L 2900 2700 
L 2900 3525 
L 2525 3525 
Q 2075 3525 1650 3500 
L 1650 3950 
Q 2075 3925 2525 3925 
L 3975 3925 
z
M 4050 2125 
Q 4175 2000 4550 1600 
Q 4300 1450 4125 1325 
Q 4050 1425 3700 1850 
Q 3900 2000 4050 2125 
z
" transform="scale(0.015625)"/>
       <path id="SimHei-5bb6" d="M 3425 1125 
Q 2600 475 1900 100 
Q 1200 -275 700 -525 
Q 500 -275 325 -75 
Q 1550 325 2262 775 
Q 2975 1225 3275 1550 
Q 3175 1725 3075 1850 
Q 2300 1300 1700 975 
Q 1100 650 750 525 
Q 575 775 375 950 
Q 1375 1250 1962 1600 
Q 2550 1950 2800 2175 
Q 2700 2300 2575 2450 
Q 2175 2225 1712 2012 
Q 1250 1800 725 1575 
Q 575 1825 375 2075 
Q 1400 2325 1950 2600 
Q 2500 2875 2750 3150 
L 2400 3150 
Q 2050 3150 1575 3125 
L 1575 3575 
Q 2050 3550 2400 3550 
L 4100 3550 
Q 4425 3550 4900 3575 
L 4900 3125 
Q 4425 3150 4100 3150 
L 3425 3150 
Q 3200 2950 2925 2700 
Q 3125 2525 3300 2337 
Q 3475 2150 3675 1825 
Q 3975 1975 4350 2237 
Q 4725 2500 5025 2900 
Q 5400 2550 5525 2425 
Q 5225 2300 5000 2175 
Q 4775 2050 4625 1900 
Q 4850 1150 5200 825 
Q 5550 500 6175 200 
Q 5925 25 5725 -275 
Q 5025 175 4700 662 
Q 4375 1150 4250 1675 
Q 4050 1550 3850 1450 
Q 3975 775 3962 325 
Q 3950 -125 3587 -362 
Q 3225 -600 2725 -675 
Q 2625 -350 2500 -100 
Q 2925 -100 3175 -25 
Q 3425 50 3462 350 
Q 3500 650 3425 1125 
z
M 3350 5275 
Q 3400 5025 3575 4525 
L 5875 4525 
Q 5850 4125 5850 3875 
Q 5850 3650 5875 3300 
L 5350 3300 
L 5350 4125 
L 1000 4125 
L 1000 3175 
L 475 3175 
Q 500 3575 500 3875 
Q 500 4200 475 4525 
L 2975 4525 
Q 2875 4850 2750 5100 
Q 3075 5175 3350 5275 
z
" transform="scale(0.015625)"/>
      </defs>
      <use xlink:href="#SimHei-56fd"/>
      <use xlink:href="#SimHei-5bb6" x="100"/>
     </g>
    </g>
   </g>
   <g id="matplotlib.axis_2">
    <g id="ytick_1">
     <g id="line2d_1">
      <path d="M 52.93575 246.11775 
L 704.448 246.11775 
" clip-path="url(#p76f179bc1d)" style="fill: none; stroke: #ffffff; stroke-linecap: round"/>
     </g>
     <g id="text_22">
      <!-- 0.0 -->
      <g style="fill: #262626" transform="translate(41.78575 261.38025) rotate(-90) scale(0.132 -0.132)">
       <defs>
        <path id="SimHei-30" d="M 225 2537 
Q 250 3200 412 3587 
Q 575 3975 875 4225 
Q 1175 4475 1612 4475 
Q 2050 4475 2375 4112 
Q 2700 3750 2800 3200 
Q 2900 2650 2862 1937 
Q 2825 1225 2612 775 
Q 2400 325 1975 150 
Q 1550 -25 1125 187 
Q 700 400 525 750 
Q 350 1100 275 1487 
Q 200 1875 225 2537 
z
M 750 2687 
Q 675 2000 800 1462 
Q 925 925 1212 700 
Q 1500 475 1800 612 
Q 2100 750 2237 1162 
Q 2375 1575 2375 2062 
Q 2375 2550 2337 2950 
Q 2300 3350 2112 3675 
Q 1925 4000 1612 4012 
Q 1300 4025 1062 3700 
Q 825 3375 750 2687 
z
" transform="scale(0.015625)"/>
       </defs>
       <use xlink:href="#SimHei-30"/>
       <use xlink:href="#SimHei-2e" x="50"/>
       <use xlink:href="#SimHei-30" x="100"/>
      </g>
     </g>
    </g>
    <g id="ytick_2">
     <g id="line2d_2">
      <path d="M 52.93575 216.969009 
L 704.448 216.969009 
" clip-path="url(#p76f179bc1d)" style="fill: none; stroke: #ffffff; stroke-linecap: round"/>
     </g>
     <g id="text_23">
      <!-- 0.2 -->
      <g style="fill: #262626" transform="translate(41.78575 232.231509) rotate(-90) scale(0.132 -0.132)">
       <defs>
        <path id="SimHei-32" d="M 300 250 
Q 325 625 650 925 
Q 975 1225 1475 1862 
Q 1975 2500 2125 2850 
Q 2275 3200 2237 3450 
Q 2200 3700 2000 3862 
Q 1800 4025 1537 4000 
Q 1275 3975 1037 3800 
Q 800 3625 675 3275 
L 200 3350 
Q 400 3925 712 4187 
Q 1025 4450 1450 4475 
Q 1700 4500 1900 4462 
Q 2100 4425 2312 4287 
Q 2525 4150 2662 3875 
Q 2800 3600 2762 3212 
Q 2725 2825 2375 2287 
Q 2025 1750 1025 600 
L 2825 600 
L 2825 150 
L 300 150 
L 300 250 
z
" transform="scale(0.015625)"/>
       </defs>
       <use xlink:href="#SimHei-30"/>
       <use xlink:href="#SimHei-2e" x="50"/>
       <use xlink:href="#SimHei-32" x="100"/>
      </g>
     </g>
    </g>
    <g id="ytick_3">
     <g id="line2d_3">
      <path d="M 52.93575 187.820268 
L 704.448 187.820268 
" clip-path="url(#p76f179bc1d)" style="fill: none; stroke: #ffffff; stroke-linecap: round"/>
     </g>
     <g id="text_24">
      <!-- 0.4 -->
      <g style="fill: #262626" transform="translate(41.78575 203.082768) rotate(-90) scale(0.132 -0.132)">
       <defs>
        <path id="SimHei-34" d="M 2000 1100 
L 75 1100 
L 75 1525 
L 2100 4450 
L 2475 4450 
L 2475 1525 
L 3075 1525 
L 3075 1100 
L 2475 1100 
L 2475 150 
L 2000 150 
L 2000 1100 
z
M 2000 1525 
L 2000 3500 
L 600 1525 
L 2000 1525 
z
" transform="scale(0.015625)"/>
       </defs>
       <use xlink:href="#SimHei-30"/>
       <use xlink:href="#SimHei-2e" x="50"/>
       <use xlink:href="#SimHei-34" x="100"/>
      </g>
     </g>
    </g>
    <g id="ytick_4">
     <g id="line2d_4">
      <path d="M 52.93575 158.671528 
L 704.448 158.671528 
" clip-path="url(#p76f179bc1d)" style="fill: none; stroke: #ffffff; stroke-linecap: round"/>
     </g>
     <g id="text_25">
      <!-- 0.6 -->
      <g style="fill: #262626" transform="translate(41.78575 173.934028) rotate(-90) scale(0.132 -0.132)">
       <defs>
        <path id="SimHei-36" d="M 250 1612 
Q 275 1975 387 2225 
Q 500 2475 725 2850 
L 1750 4450 
L 2325 4450 
L 1275 2800 
Q 1950 2975 2350 2750 
Q 2750 2525 2887 2237 
Q 3025 1950 3037 1612 
Q 3050 1275 2937 950 
Q 2825 625 2537 362 
Q 2250 100 1737 75 
Q 1225 50 862 262 
Q 500 475 362 862 
Q 225 1250 250 1612 
z
M 1025 787 
Q 1250 550 1625 525 
Q 2000 500 2250 775 
Q 2500 1050 2500 1575 
Q 2500 2100 2187 2300 
Q 1875 2500 1487 2450 
Q 1100 2400 925 2075 
Q 750 1750 775 1387 
Q 800 1025 1025 787 
z
" transform="scale(0.015625)"/>
       </defs>
       <use xlink:href="#SimHei-30"/>
       <use xlink:href="#SimHei-2e" x="50"/>
       <use xlink:href="#SimHei-36" x="100"/>
      </g>
     </g>
    </g>
    <g id="ytick_5">
     <g id="line2d_5">
      <path d="M 52.93575 129.522787 
L 704.448 129.522787 
" clip-path="url(#p76f179bc1d)" style="fill: none; stroke: #ffffff; stroke-linecap: round"/>
     </g>
     <g id="text_26">
      <!-- 0.8 -->
      <g style="fill: #262626" transform="translate(41.78575 144.785287) rotate(-90) scale(0.132 -0.132)">
       <defs>
        <path id="SimHei-38" d="M 175 1375 
Q 175 1675 325 1962 
Q 475 2250 825 2425 
Q 525 2600 425 2812 
Q 325 3025 312 3300 
Q 300 3575 387 3775 
Q 475 3975 650 4150 
Q 825 4325 1037 4387 
Q 1250 4450 1500 4450 
Q 1750 4450 1950 4400 
Q 2150 4350 2375 4187 
Q 2600 4025 2700 3725 
Q 2800 3425 2687 3025 
Q 2575 2625 2100 2400 
Q 2525 2275 2700 2012 
Q 2875 1750 2875 1375 
Q 2875 1000 2762 775 
Q 2650 550 2512 400 
Q 2375 250 2137 162 
Q 1900 75 1537 75 
Q 1175 75 912 162 
Q 650 250 475 425 
Q 300 600 237 837 
Q 175 1075 175 1375 
z
M 687 1400 
Q 675 1100 787 875 
Q 900 650 1200 587 
Q 1500 525 1825 600 
Q 2150 675 2275 950 
Q 2400 1225 2362 1500 
Q 2325 1775 2050 1962 
Q 1775 2150 1450 2125 
Q 1125 2100 912 1900 
Q 700 1700 687 1400 
z
M 775 3350 
Q 775 3100 950 2875 
Q 1125 2650 1500 2650 
Q 1875 2650 2062 2875 
Q 2250 3100 2237 3412 
Q 2225 3725 2012 3875 
Q 1800 4025 1437 4000 
Q 1075 3975 925 3787 
Q 775 3600 775 3350 
z
" transform="scale(0.015625)"/>
       </defs>
       <use xlink:href="#SimHei-30"/>
       <use xlink:href="#SimHei-2e" x="50"/>
       <use xlink:href="#SimHei-38" x="100"/>
      </g>
     </g>
    </g>
    <g id="ytick_6">
     <g id="line2d_6">
      <path d="M 52.93575 100.374046 
L 704.448 100.374046 
" clip-path="url(#p76f179bc1d)" style="fill: none; stroke: #ffffff; stroke-linecap: round"/>
     </g>
     <g id="text_27">
      <!-- 1.0 -->
      <g style="fill: #262626" transform="translate(41.78575 115.636546) rotate(-90) scale(0.132 -0.132)">
       <defs>
        <path id="SimHei-31" d="M 1400 3600 
Q 1075 3275 575 2975 
L 575 3450 
Q 1200 3875 1600 4450 
L 1900 4450 
L 1900 150 
L 1400 150 
L 1400 3600 
z
" transform="scale(0.015625)"/>
       </defs>
       <use xlink:href="#SimHei-31"/>
       <use xlink:href="#SimHei-2e" x="50"/>
       <use xlink:href="#SimHei-30" x="100"/>
      </g>
     </g>
    </g>
    <g id="ytick_7">
     <g id="line2d_7">
      <path d="M 52.93575 71.225305 
L 704.448 71.225305 
" clip-path="url(#p76f179bc1d)" style="fill: none; stroke: #ffffff; stroke-linecap: round"/>
     </g>
     <g id="text_28">
      <!-- 1.2 -->
      <g style="fill: #262626" transform="translate(41.78575 86.487805) rotate(-90) scale(0.132 -0.132)">
       <use xlink:href="#SimHei-31"/>
       <use xlink:href="#SimHei-2e" x="50"/>
       <use xlink:href="#SimHei-32" x="100"/>
      </g>
     </g>
    </g>
    <g id="ytick_8">
     <g id="line2d_8">
      <path d="M 52.93575 42.076565 
L 704.448 42.076565 
" clip-path="url(#p76f179bc1d)" style="fill: none; stroke: #ffffff; stroke-linecap: round"/>
     </g>
     <g id="text_29">
      <!-- 1.4 -->
      <g style="fill: #262626" transform="translate(41.78575 57.339065) rotate(-90) scale(0.132 -0.132)">
       <use xlink:href="#SimHei-31"/>
       <use xlink:href="#SimHei-2e" x="50"/>
       <use xlink:href="#SimHei-34" x="100"/>
      </g>
     </g>
    </g>
    <g id="text_30">
     <!-- 2021年人口数 -->
     <g style="fill: #262626" transform="translate(26.91075 180.214875) rotate(-90) scale(0.144 -0.144)">
      <defs>
       <path id="SimHei-5e74" d="M 350 2925 
Q 900 3450 1375 4200 
Q 1850 4950 1900 5275 
Q 2275 5125 2600 5050 
Q 2375 4825 2100 4325 
L 4625 4325 
Q 5175 4325 5750 4350 
L 5750 3925 
Q 5225 3950 4625 3950 
L 3800 3950 
L 3800 2925 
Q 4750 2925 5475 2950 
L 5475 2525 
Q 4725 2550 3800 2550 
L 3800 1375 
L 5075 1375 
Q 5625 1375 6100 1400 
L 6100 975 
Q 5650 1000 5075 1000 
L 3800 1000 
L 3800 425 
Q 3800 -150 3825 -625 
L 3275 -625 
Q 3300 -150 3300 375 
L 3300 1000 
L 1600 1000 
Q 900 1000 275 975 
L 275 1400 
Q 875 1375 1450 1375 
Q 1450 2350 1425 2925 
L 3300 2925 
L 3300 3950 
L 1875 3950 
Q 1350 3150 925 2650 
Q 650 2875 350 2925 
z
M 3300 1375 
L 3300 2550 
L 1925 2550 
L 1925 1375 
L 3300 1375 
z
" transform="scale(0.015625)"/>
       <path id="SimHei-4eba" d="M 350 -150 
Q 1325 325 1875 1025 
Q 2425 1725 2637 2462 
Q 2850 3200 2875 3837 
Q 2900 4475 2850 5175 
Q 3125 5150 3475 5125 
Q 3400 4725 3400 4300 
Q 3400 3875 3450 3325 
Q 3500 2775 4162 1662 
Q 4825 550 6100 0 
Q 5800 -300 5700 -500 
Q 3950 350 3200 2575 
Q 2700 600 775 -575 
Q 625 -375 350 -150 
z
" transform="scale(0.015625)"/>
       <path id="SimHei-53e3" d="M 5425 4300 
Q 5400 3775 5400 3175 
L 5400 550 
Q 5400 100 5425 -425 
L 4900 -425 
L 4900 100 
L 1525 100 
L 1525 -425 
L 1000 -425 
Q 1025 0 1025 550 
L 1025 3175 
Q 1025 3775 1000 4300 
L 5425 4300 
z
M 4900 525 
L 4900 3875 
L 1525 3875 
L 1525 525 
L 4900 525 
z
" transform="scale(0.015625)"/>
       <path id="SimHei-6570" d="M 4525 4925 
Q 4475 4800 4400 4587 
Q 4325 4375 4175 3825 
L 5325 3825 
Q 5575 3825 5925 3850 
L 5925 3400 
Q 5650 3425 5500 3425 
Q 5500 3025 5362 2162 
Q 5225 1300 4875 675 
Q 5125 375 5437 137 
Q 5750 -100 6025 -200 
Q 5725 -425 5625 -625 
Q 5325 -450 5075 -225 
Q 4825 0 4575 325 
Q 4300 25 3987 -187 
Q 3675 -400 3200 -650 
Q 3075 -425 2850 -300 
Q 3225 -150 3650 125 
Q 4075 400 4300 675 
Q 4125 1025 3962 1425 
Q 3800 1825 3675 2475 
Q 3600 2275 3425 1950 
Q 3250 2050 3000 2150 
Q 3400 2850 3650 3675 
Q 3900 4500 3975 5100 
Q 4275 4975 4525 4925 
z
M 2100 2250 
Q 2000 2150 1875 1925 
L 3250 1925 
Q 3100 1300 2725 675 
Q 3125 525 3350 400 
Q 3225 225 3125 25 
Q 2900 175 2450 325 
Q 1950 -225 725 -650 
Q 600 -375 400 -275 
Q 1575 0 2000 475 
Q 1300 650 850 775 
Q 1000 1000 1250 1525 
Q 1000 1525 425 1500 
L 425 1950 
Q 900 1925 1400 1925 
Q 1500 2150 1550 2425 
Q 1825 2325 2100 2250 
z
M 1775 3950 
Q 1775 4550 1750 5100 
L 2250 5100 
Q 2225 4575 2225 3950 
Q 3075 3950 3425 3975 
L 3425 3525 
Q 3075 3550 2225 3550 
Q 2225 2825 2250 2425 
L 1750 2425 
Q 1775 2775 1775 3300 
Q 1650 3100 1300 2787 
Q 950 2475 650 2300 
Q 525 2525 275 2625 
Q 500 2700 875 2975 
Q 1250 3250 1450 3550 
Q 950 3550 500 3525 
L 500 3975 
Q 925 3950 1775 3950 
z
M 3975 3175 
Q 4200 1700 4600 1125 
Q 4850 1700 4937 2287 
Q 5025 2875 5050 3425 
L 4075 3425 
L 3975 3175 
z
M 1450 1000 
Q 1750 925 2275 800 
Q 2475 1050 2650 1525 
L 1725 1525 
Q 1600 1275 1450 1000 
z
M 3325 4825 
Q 3200 4625 3125 4450 
Q 3050 4275 2925 4025 
Q 2725 4125 2525 4175 
Q 2725 4500 2900 5000 
Q 3150 4875 3325 4825 
z
M 2575 3375 
Q 2900 3050 3200 2725 
Q 3050 2600 2875 2425 
Q 2525 2850 2300 3100 
Q 2450 3225 2575 3375 
z
M 925 5000 
Q 1275 4650 1500 4300 
L 1125 4075 
Q 950 4425 600 4725 
Q 825 4875 925 5000 
z
" transform="scale(0.015625)"/>
      </defs>
      <use xlink:href="#SimHei-32"/>
      <use xlink:href="#SimHei-30" x="50"/>
      <use xlink:href="#SimHei-32" x="100"/>
      <use xlink:href="#SimHei-31" x="150"/>
      <use xlink:href="#SimHei-5e74" x="200"/>
      <use xlink:href="#SimHei-4eba" x="300"/>
      <use xlink:href="#SimHei-53e3" x="400"/>
      <use xlink:href="#SimHei-6570" x="500"/>
     </g>
    </g>
    <g id="text_31">
     <!-- 1e9 -->
     <g style="fill: #262626" transform="translate(52.93575 24.912) scale(0.132 -0.132)">
      <defs>
       <path id="SimHei-39" d="M 800 75 
Q 1350 1000 1700 1750 
Q 1075 1650 662 1912 
Q 250 2175 162 2625 
Q 75 3075 175 3437 
Q 275 3800 487 4037 
Q 700 4275 1000 4375 
Q 1300 4475 1537 4475 
Q 1775 4475 2025 4375 
Q 2275 4275 2475 4075 
Q 2675 3875 2750 3662 
Q 2825 3450 2825 3112 
Q 2825 2775 2575 2250 
Q 2325 1725 1350 75 
L 800 75 
z
M 662 2875 
Q 700 2550 937 2337 
Q 1175 2125 1450 2150 
Q 1725 2175 1887 2300 
Q 2050 2425 2200 2725 
Q 2300 3100 2250 3362 
Q 2200 3625 1987 3800 
Q 1775 3975 1525 3975 
Q 1375 4000 1137 3900 
Q 900 3800 762 3500 
Q 625 3200 662 2875 
z
" transform="scale(0.015625)"/>
      </defs>
      <use xlink:href="#SimHei-31"/>
      <use xlink:href="#SimHei-65" x="50"/>
      <use xlink:href="#SimHei-39" x="100"/>
     </g>
    </g>
   </g>
   <g id="patch_3">
    <path d="M 56.193311 246.11775 
L 82.253801 246.11775 
L 82.253801 38.30275 
L 56.193311 38.30275 
z
" clip-path="url(#p76f179bc1d)" style="fill: #ea96a3; stroke: #ffffff; stroke-linejoin: miter"/>
   </g>
   <g id="patch_4">
    <path d="M 88.768924 246.11775 
L 114.829414 246.11775 
L 114.829414 40.974174 
L 88.768924 40.974174 
z
" clip-path="url(#p76f179bc1d)" style="fill: #e79683; stroke: #ffffff; stroke-linejoin: miter"/>
   </g>
   <g id="patch_5">
    <path d="M 121.344536 246.11775 
L 147.405026 246.11775 
L 147.405026 197.002467 
L 121.344536 197.002467 
z
" clip-path="url(#p76f179bc1d)" style="fill: #d7944e; stroke: #ffffff; stroke-linejoin: miter"/>
   </g>
   <g id="patch_6">
    <path d="M 153.920149 246.11775 
L 179.980639 246.11775 
L 179.980639 206.219948 
L 153.920149 206.219948 
z
" clip-path="url(#p76f179bc1d)" style="fill: #bf9a4a; stroke: #ffffff; stroke-linejoin: miter"/>
   </g>
   <g id="patch_7">
    <path d="M 186.495761 246.11775 
L 212.556251 246.11775 
L 212.556251 212.392349 
L 186.495761 212.392349 
z
" clip-path="url(#p76f179bc1d)" style="fill: #ab9e47; stroke: #ffffff; stroke-linejoin: miter"/>
   </g>
   <g id="patch_8">
    <path d="M 219.071374 246.11775 
L 245.131864 246.11775 
L 245.131864 214.881053 
L 219.071374 214.881053 
z
" clip-path="url(#p76f179bc1d)" style="fill: #98a246; stroke: #ffffff; stroke-linejoin: miter"/>
   </g>
   <g id="patch_9">
    <path d="M 251.646986 246.11775 
L 277.707476 246.11775 
L 277.707476 215.01585 
L 251.646986 215.01585 
z
" clip-path="url(#p76f179bc1d)" style="fill: #7fa946; stroke: #ffffff; stroke-linejoin: miter"/>
   </g>
   <g id="patch_10">
    <path d="M 284.222599 246.11775 
L 310.283089 246.11775 
L 310.283089 221.435144 
L 284.222599 221.435144 
z
" clip-path="url(#p76f179bc1d)" style="fill: #48b052; stroke: #ffffff; stroke-linejoin: miter"/>
   </g>
   <g id="patch_11">
    <path d="M 316.798211 246.11775 
L 342.858701 246.11775 
L 342.858701 224.969938 
L 316.798211 224.969938 
z
" clip-path="url(#p76f179bc1d)" style="fill: #49ae83; stroke: #ffffff; stroke-linejoin: miter"/>
   </g>
   <g id="patch_12">
    <path d="M 349.373824 246.11775 
L 375.434314 246.11775 
L 375.434314 227.651274 
L 349.373824 227.651274 
z
" clip-path="url(#p76f179bc1d)" style="fill: #4aad96; stroke: #ffffff; stroke-linejoin: miter"/>
   </g>
   <g id="patch_13">
    <path d="M 381.949436 246.11775 
L 408.009926 246.11775 
L 408.009926 227.956258 
L 381.949436 227.956258 
z
" clip-path="url(#p76f179bc1d)" style="fill: #4baba4; stroke: #ffffff; stroke-linejoin: miter"/>
   </g>
   <g id="patch_14">
    <path d="M 414.525049 246.11775 
L 440.585539 246.11775 
L 440.585539 228.587257 
L 414.525049 228.587257 
z
" clip-path="url(#p76f179bc1d)" style="fill: #4dabb2; stroke: #ffffff; stroke-linejoin: miter"/>
   </g>
   <g id="patch_15">
    <path d="M 447.100661 246.11775 
L 473.161151 246.11775 
L 473.161151 229.520407 
L 447.100661 229.520407 
z
" clip-path="url(#p76f179bc1d)" style="fill: #50acc3; stroke: #ffffff; stroke-linejoin: miter"/>
   </g>
   <g id="patch_16">
    <path d="M 479.676274 246.11775 
L 505.736764 246.11775 
L 505.736764 230.193475 
L 479.676274 230.193475 
z
" clip-path="url(#p76f179bc1d)" style="fill: #56addb; stroke: #ffffff; stroke-linejoin: miter"/>
   </g>
   <g id="patch_17">
    <path d="M 512.251886 246.11775 
L 538.312376 246.11775 
L 538.312376 231.912399 
L 512.251886 231.912399 
z
" clip-path="url(#p76f179bc1d)" style="fill: #94aee8; stroke: #ffffff; stroke-linejoin: miter"/>
   </g>
   <g id="patch_18">
    <path d="M 544.827499 246.11775 
L 570.887989 246.11775 
L 570.887989 232.141786 
L 544.827499 232.141786 
z
" clip-path="url(#p76f179bc1d)" style="fill: #b6a8eb; stroke: #ffffff; stroke-linejoin: miter"/>
   </g>
   <g id="patch_19">
    <path d="M 577.403111 246.11775 
L 603.463601 246.11775 
L 603.463601 233.303464 
L 577.403111 233.303464 
z
" clip-path="url(#p76f179bc1d)" style="fill: #ce9be9; stroke: #ffffff; stroke-linejoin: miter"/>
   </g>
   <g id="patch_20">
    <path d="M 609.978724 246.11775 
L 636.039214 246.11775 
L 636.039214 233.762268 
L 609.978724 233.762268 
z
" clip-path="url(#p76f179bc1d)" style="fill: #e689e4; stroke: #ffffff; stroke-linejoin: miter"/>
   </g>
   <g id="patch_21">
    <path d="M 642.554336 246.11775 
L 668.614826 246.11775 
L 668.614826 233.961478 
L 642.554336 233.961478 
z
" clip-path="url(#p76f179bc1d)" style="fill: #e88fcc; stroke: #ffffff; stroke-linejoin: miter"/>
   </g>
   <g id="patch_22">
    <path d="M 675.129949 246.11775 
L 701.190439 246.11775 
L 701.190439 235.68234 
L 675.129949 235.68234 
z
" clip-path="url(#p76f179bc1d)" style="fill: #e993b9; stroke: #ffffff; stroke-linejoin: miter"/>
   </g>
   <g id="line2d_9">
    <path clip-path="url(#p76f179bc1d)" style="fill: none; stroke: #424242; stroke-width: 2.7; stroke-linecap: round"/>
   </g>
   <g id="line2d_10">
    <path clip-path="url(#p76f179bc1d)" style="fill: none; stroke: #424242; stroke-width: 2.7; stroke-linecap: round"/>
   </g>
   <g id="line2d_11">
    <path clip-path="url(#p76f179bc1d)" style="fill: none; stroke: #424242; stroke-width: 2.7; stroke-linecap: round"/>
   </g>
   <g id="line2d_12">
    <path clip-path="url(#p76f179bc1d)" style="fill: none; stroke: #424242; stroke-width: 2.7; stroke-linecap: round"/>
   </g>
   <g id="line2d_13">
    <path clip-path="url(#p76f179bc1d)" style="fill: none; stroke: #424242; stroke-width: 2.7; stroke-linecap: round"/>
   </g>
   <g id="line2d_14">
    <path clip-path="url(#p76f179bc1d)" style="fill: none; stroke: #424242; stroke-width: 2.7; stroke-linecap: round"/>
   </g>
   <g id="line2d_15">
    <path clip-path="url(#p76f179bc1d)" style="fill: none; stroke: #424242; stroke-width: 2.7; stroke-linecap: round"/>
   </g>
   <g id="line2d_16">
    <path clip-path="url(#p76f179bc1d)" style="fill: none; stroke: #424242; stroke-width: 2.7; stroke-linecap: round"/>
   </g>
   <g id="line2d_17">
    <path clip-path="url(#p76f179bc1d)" style="fill: none; stroke: #424242; stroke-width: 2.7; stroke-linecap: round"/>
   </g>
   <g id="line2d_18">
    <path clip-path="url(#p76f179bc1d)" style="fill: none; stroke: #424242; stroke-width: 2.7; stroke-linecap: round"/>
   </g>
   <g id="line2d_19">
    <path clip-path="url(#p76f179bc1d)" style="fill: none; stroke: #424242; stroke-width: 2.7; stroke-linecap: round"/>
   </g>
   <g id="line2d_20">
    <path clip-path="url(#p76f179bc1d)" style="fill: none; stroke: #424242; stroke-width: 2.7; stroke-linecap: round"/>
   </g>
   <g id="line2d_21">
    <path clip-path="url(#p76f179bc1d)" style="fill: none; stroke: #424242; stroke-width: 2.7; stroke-linecap: round"/>
   </g>
   <g id="line2d_22">
    <path clip-path="url(#p76f179bc1d)" style="fill: none; stroke: #424242; stroke-width: 2.7; stroke-linecap: round"/>
   </g>
   <g id="line2d_23">
    <path clip-path="url(#p76f179bc1d)" style="fill: none; stroke: #424242; stroke-width: 2.7; stroke-linecap: round"/>
   </g>
   <g id="line2d_24">
    <path clip-path="url(#p76f179bc1d)" style="fill: none; stroke: #424242; stroke-width: 2.7; stroke-linecap: round"/>
   </g>
   <g id="line2d_25">
    <path clip-path="url(#p76f179bc1d)" style="fill: none; stroke: #424242; stroke-width: 2.7; stroke-linecap: round"/>
   </g>
   <g id="line2d_26">
    <path clip-path="url(#p76f179bc1d)" style="fill: none; stroke: #424242; stroke-width: 2.7; stroke-linecap: round"/>
   </g>
   <g id="line2d_27">
    <path clip-path="url(#p76f179bc1d)" style="fill: none; stroke: #424242; stroke-width: 2.7; stroke-linecap: round"/>
   </g>
   <g id="line2d_28">
    <path clip-path="url(#p76f179bc1d)" style="fill: none; stroke: #424242; stroke-width: 2.7; stroke-linecap: round"/>
   </g>
   <g id="patch_23">
    <path d="M 52.93575 246.11775 
L 52.93575 27.912 
" style="fill: none; stroke: #ffffff; stroke-width: 1.25; stroke-linejoin: miter; stroke-linecap: square"/>
   </g>
   <g id="patch_24">
    <path d="M 704.448 246.11775 
L 704.448 27.912 
" style="fill: none; stroke: #ffffff; stroke-width: 1.25; stroke-linejoin: miter; stroke-linecap: square"/>
   </g>
   <g id="patch_25">
    <path d="M 52.93575 246.11775 
L 704.448 246.11775 
" style="fill: none; stroke: #ffffff; stroke-width: 1.25; stroke-linejoin: miter; stroke-linecap: square"/>
   </g>
   <g id="patch_26">
    <path d="M 52.93575 27.912 
L 704.448 27.912 
" style="fill: none; stroke: #ffffff; stroke-width: 1.25; stroke-linejoin: miter; stroke-linecap: square"/>
   </g>
  </g>
  <g id="axes_2">
   <g id="patch_27">
    <path d="M 52.93575 592.11675 
L 704.448 592.11675 
L 704.448 373.911 
L 52.93575 373.911 
z
" style="fill: #eaeaf2"/>
   </g>
   <g id="matplotlib.axis_3">
    <g id="xtick_21">
     <g id="text_32">
      <!-- Liechtenst... -->
      <g style="fill: #262626" transform="translate(72.936056 687.41675) rotate(-90) scale(0.132 -0.132)">
       <defs>
        <path id="SimHei-4c" d="M 2900 125 
L 300 125 
L 300 4400 
L 875 4400 
L 875 600 
L 2900 600 
L 2900 125 
z
" transform="scale(0.015625)"/>
       </defs>
       <use xlink:href="#SimHei-4c"/>
       <use xlink:href="#SimHei-69" x="50"/>
       <use xlink:href="#SimHei-65" x="100"/>
       <use xlink:href="#SimHei-63" x="150"/>
       <use xlink:href="#SimHei-68" x="200"/>
       <use xlink:href="#SimHei-74" x="250"/>
       <use xlink:href="#SimHei-65" x="300"/>
       <use xlink:href="#SimHei-6e" x="350"/>
       <use xlink:href="#SimHei-73" x="400"/>
       <use xlink:href="#SimHei-74" x="450"/>
       <use xlink:href="#SimHei-2e" x="500"/>
       <use xlink:href="#SimHei-2e" x="550"/>
       <use xlink:href="#SimHei-2e" x="600"/>
      </g>
     </g>
    </g>
    <g id="xtick_22">
     <g id="text_33">
      <!-- Monaco -->
      <g style="fill: #262626" transform="translate(105.511669 641.21675) rotate(-90) scale(0.132 -0.132)">
       <use xlink:href="#SimHei-4d"/>
       <use xlink:href="#SimHei-6f" x="50"/>
       <use xlink:href="#SimHei-6e" x="100"/>
       <use xlink:href="#SimHei-61" x="150"/>
       <use xlink:href="#SimHei-63" x="200"/>
       <use xlink:href="#SimHei-6f" x="250"/>
      </g>
     </g>
    </g>
    <g id="xtick_23">
     <g id="text_34">
      <!-- San Marino -->
      <g style="fill: #262626" transform="translate(138.087281 667.61675) rotate(-90) scale(0.132 -0.132)">
       <use xlink:href="#SimHei-53"/>
       <use xlink:href="#SimHei-61" x="50"/>
       <use xlink:href="#SimHei-6e" x="100"/>
       <use xlink:href="#SimHei-20" x="150"/>
       <use xlink:href="#SimHei-4d" x="200"/>
       <use xlink:href="#SimHei-61" x="250"/>
       <use xlink:href="#SimHei-72" x="300"/>
       <use xlink:href="#SimHei-69" x="350"/>
       <use xlink:href="#SimHei-6e" x="400"/>
       <use xlink:href="#SimHei-6f" x="450"/>
      </g>
     </g>
    </g>
    <g id="xtick_24">
     <g id="text_35">
      <!-- Gibraltar -->
      <g style="fill: #262626" transform="translate(170.662894 661.01675) rotate(-90) scale(0.132 -0.132)">
       <defs>
        <path id="SimHei-62" d="M 2825 1525 
Q 2825 800 2475 437 
Q 2125 75 1625 75 
Q 1350 75 1150 175 
Q 950 275 800 500 
L 800 125 
L 300 125 
L 300 4400 
L 800 4400 
L 800 2550 
Q 950 2775 1150 2887 
Q 1350 3000 1625 3000 
Q 2125 3000 2475 2625 
Q 2825 2250 2825 1525 
z
M 2275 1525 
Q 2275 2000 2087 2275 
Q 1900 2550 1525 2550 
Q 1225 2550 1012 2275 
Q 800 2000 800 1525 
Q 800 1050 1012 787 
Q 1225 525 1525 525 
Q 1900 525 2087 787 
Q 2275 1050 2275 1525 
z
" transform="scale(0.015625)"/>
       </defs>
       <use xlink:href="#SimHei-47"/>
       <use xlink:href="#SimHei-69" x="50"/>
       <use xlink:href="#SimHei-62" x="100"/>
       <use xlink:href="#SimHei-72" x="150"/>
       <use xlink:href="#SimHei-61" x="200"/>
       <use xlink:href="#SimHei-6c" x="250"/>
       <use xlink:href="#SimHei-74" x="300"/>
       <use xlink:href="#SimHei-61" x="350"/>
       <use xlink:href="#SimHei-72" x="400"/>
      </g>
     </g>
    </g>
    <g id="xtick_25">
     <g id="text_36">
      <!-- Saint Mart... -->
      <g style="fill: #262626" transform="translate(203.238506 687.41675) rotate(-90) scale(0.132 -0.132)">
       <use xlink:href="#SimHei-53"/>
       <use xlink:href="#SimHei-61" x="50"/>
       <use xlink:href="#SimHei-69" x="100"/>
       <use xlink:href="#SimHei-6e" x="150"/>
       <use xlink:href="#SimHei-74" x="200"/>
       <use xlink:href="#SimHei-20" x="250"/>
       <use xlink:href="#SimHei-4d" x="300"/>
       <use xlink:href="#SimHei-61" x="350"/>
       <use xlink:href="#SimHei-72" x="400"/>
       <use xlink:href="#SimHei-74" x="450"/>
       <use xlink:href="#SimHei-2e" x="500"/>
       <use xlink:href="#SimHei-2e" x="550"/>
       <use xlink:href="#SimHei-2e" x="600"/>
      </g>
     </g>
    </g>
    <g id="xtick_26">
     <g id="text_37">
      <!-- British Vi... -->
      <g style="fill: #262626" transform="translate(235.814119 687.41675) rotate(-90) scale(0.132 -0.132)">
       <use xlink:href="#SimHei-42"/>
       <use xlink:href="#SimHei-72" x="50"/>
       <use xlink:href="#SimHei-69" x="100"/>
       <use xlink:href="#SimHei-74" x="150"/>
       <use xlink:href="#SimHei-69" x="200"/>
       <use xlink:href="#SimHei-73" x="250"/>
       <use xlink:href="#SimHei-68" x="300"/>
       <use xlink:href="#SimHei-20" x="350"/>
       <use xlink:href="#SimHei-56" x="400"/>
       <use xlink:href="#SimHei-69" x="450"/>
       <use xlink:href="#SimHei-2e" x="500"/>
       <use xlink:href="#SimHei-2e" x="550"/>
       <use xlink:href="#SimHei-2e" x="600"/>
      </g>
     </g>
    </g>
    <g id="xtick_27">
     <g id="text_38">
      <!-- Bonaire Si... -->
      <g style="fill: #262626" transform="translate(268.389731 687.41675) rotate(-90) scale(0.132 -0.132)">
       <use xlink:href="#SimHei-42"/>
       <use xlink:href="#SimHei-6f" x="50"/>
       <use xlink:href="#SimHei-6e" x="100"/>
       <use xlink:href="#SimHei-61" x="150"/>
       <use xlink:href="#SimHei-69" x="200"/>
       <use xlink:href="#SimHei-72" x="250"/>
       <use xlink:href="#SimHei-65" x="300"/>
       <use xlink:href="#SimHei-20" x="350"/>
       <use xlink:href="#SimHei-53" x="400"/>
       <use xlink:href="#SimHei-69" x="450"/>
       <use xlink:href="#SimHei-2e" x="500"/>
       <use xlink:href="#SimHei-2e" x="550"/>
       <use xlink:href="#SimHei-2e" x="600"/>
      </g>
     </g>
    </g>
    <g id="xtick_28">
     <g id="text_39">
      <!-- Palau -->
      <g style="fill: #262626" transform="translate(300.965344 634.61675) rotate(-90) scale(0.132 -0.132)">
       <use xlink:href="#SimHei-50"/>
       <use xlink:href="#SimHei-61" x="50"/>
       <use xlink:href="#SimHei-6c" x="100"/>
       <use xlink:href="#SimHei-61" x="150"/>
       <use xlink:href="#SimHei-75" x="200"/>
      </g>
     </g>
    </g>
    <g id="xtick_29">
     <g id="text_40">
      <!-- Cook Islan... -->
      <g style="fill: #262626" transform="translate(333.540956 687.41675) rotate(-90) scale(0.132 -0.132)">
       <use xlink:href="#SimHei-43"/>
       <use xlink:href="#SimHei-6f" x="50"/>
       <use xlink:href="#SimHei-6f" x="100"/>
       <use xlink:href="#SimHei-6b" x="150"/>
       <use xlink:href="#SimHei-20" x="200"/>
       <use xlink:href="#SimHei-49" x="250"/>
       <use xlink:href="#SimHei-73" x="300"/>
       <use xlink:href="#SimHei-6c" x="350"/>
       <use xlink:href="#SimHei-61" x="400"/>
       <use xlink:href="#SimHei-6e" x="450"/>
       <use xlink:href="#SimHei-2e" x="500"/>
       <use xlink:href="#SimHei-2e" x="550"/>
       <use xlink:href="#SimHei-2e" x="600"/>
      </g>
     </g>
    </g>
    <g id="xtick_30">
     <g id="text_41">
      <!-- Anguilla -->
      <g style="fill: #262626" transform="translate(366.168131 654.41675) rotate(-90) scale(0.132 -0.132)">
       <defs>
        <path id="SimHei-41" d="M 3075 125 
L 2475 125 
L 2125 1450 
L 1025 1450 
L 675 125 
L 75 125 
L 1325 4450 
L 1825 4450 
L 3075 125 
z
M 2000 1925 
L 1600 3450 
L 1550 3450 
L 1150 1925 
L 2000 1925 
z
" transform="scale(0.015625)"/>
       </defs>
       <use xlink:href="#SimHei-41"/>
       <use xlink:href="#SimHei-6e" x="50"/>
       <use xlink:href="#SimHei-67" x="100"/>
       <use xlink:href="#SimHei-75" x="150"/>
       <use xlink:href="#SimHei-69" x="200"/>
       <use xlink:href="#SimHei-6c" x="250"/>
       <use xlink:href="#SimHei-6c" x="300"/>
       <use xlink:href="#SimHei-61" x="350"/>
      </g>
     </g>
    </g>
    <g id="xtick_31">
     <g id="text_42">
      <!-- Nauru -->
      <g style="fill: #262626" transform="translate(398.692181 634.61675) rotate(-90) scale(0.132 -0.132)">
       <use xlink:href="#SimHei-4e"/>
       <use xlink:href="#SimHei-61" x="50"/>
       <use xlink:href="#SimHei-75" x="100"/>
       <use xlink:href="#SimHei-72" x="150"/>
       <use xlink:href="#SimHei-75" x="200"/>
      </g>
     </g>
    </g>
    <g id="xtick_32">
     <g id="text_43">
      <!-- Wallis and... -->
      <g style="fill: #262626" transform="translate(431.267794 687.41675) rotate(-90) scale(0.132 -0.132)">
       <defs>
        <path id="SimHei-57" d="M 3075 4400 
L 2525 75 
L 2025 75 
L 1575 3275 
L 1525 3275 
L 1075 75 
L 575 75 
L 25 4400 
L 575 4400 
L 850 1675 
L 900 1675 
L 1275 4400 
L 1825 4400 
L 2200 1675 
L 2250 1675 
L 2525 4400 
L 3075 4400 
z
" transform="scale(0.015625)"/>
       </defs>
       <use xlink:href="#SimHei-57"/>
       <use xlink:href="#SimHei-61" x="50"/>
       <use xlink:href="#SimHei-6c" x="100"/>
       <use xlink:href="#SimHei-6c" x="150"/>
       <use xlink:href="#SimHei-69" x="200"/>
       <use xlink:href="#SimHei-73" x="250"/>
       <use xlink:href="#SimHei-20" x="300"/>
       <use xlink:href="#SimHei-61" x="350"/>
       <use xlink:href="#SimHei-6e" x="400"/>
       <use xlink:href="#SimHei-64" x="450"/>
       <use xlink:href="#SimHei-2e" x="500"/>
       <use xlink:href="#SimHei-2e" x="550"/>
       <use xlink:href="#SimHei-2e" x="600"/>
      </g>
     </g>
    </g>
    <g id="xtick_33">
     <g id="text_44">
      <!-- Tuvalu -->
      <g style="fill: #262626" transform="translate(463.843406 641.21675) rotate(-90) scale(0.132 -0.132)">
       <defs>
        <path id="SimHei-76" d="M 2875 2925 
L 1825 75 
L 1275 75 
L 225 2925 
L 750 2925 
L 1525 750 
L 1575 750 
L 2350 2925 
L 2875 2925 
z
" transform="scale(0.015625)"/>
       </defs>
       <use xlink:href="#SimHei-54"/>
       <use xlink:href="#SimHei-75" x="50"/>
       <use xlink:href="#SimHei-76" x="100"/>
       <use xlink:href="#SimHei-61" x="150"/>
       <use xlink:href="#SimHei-6c" x="200"/>
       <use xlink:href="#SimHei-75" x="250"/>
      </g>
     </g>
    </g>
    <g id="xtick_34">
     <g id="text_45">
      <!-- Saint Bart... -->
      <g style="fill: #262626" transform="translate(496.419019 687.41675) rotate(-90) scale(0.132 -0.132)">
       <use xlink:href="#SimHei-53"/>
       <use xlink:href="#SimHei-61" x="50"/>
       <use xlink:href="#SimHei-69" x="100"/>
       <use xlink:href="#SimHei-6e" x="150"/>
       <use xlink:href="#SimHei-74" x="200"/>
       <use xlink:href="#SimHei-20" x="250"/>
       <use xlink:href="#SimHei-42" x="300"/>
       <use xlink:href="#SimHei-61" x="350"/>
       <use xlink:href="#SimHei-72" x="400"/>
       <use xlink:href="#SimHei-74" x="450"/>
       <use xlink:href="#SimHei-2e" x="500"/>
       <use xlink:href="#SimHei-2e" x="550"/>
       <use xlink:href="#SimHei-2e" x="600"/>
      </g>
     </g>
    </g>
    <g id="xtick_35">
     <g id="text_46">
      <!-- Saint Pier... -->
      <g style="fill: #262626" transform="translate(528.994631 687.41675) rotate(-90) scale(0.132 -0.132)">
       <use xlink:href="#SimHei-53"/>
       <use xlink:href="#SimHei-61" x="50"/>
       <use xlink:href="#SimHei-69" x="100"/>
       <use xlink:href="#SimHei-6e" x="150"/>
       <use xlink:href="#SimHei-74" x="200"/>
       <use xlink:href="#SimHei-20" x="250"/>
       <use xlink:href="#SimHei-50" x="300"/>
       <use xlink:href="#SimHei-69" x="350"/>
       <use xlink:href="#SimHei-65" x="400"/>
       <use xlink:href="#SimHei-72" x="450"/>
       <use xlink:href="#SimHei-2e" x="500"/>
       <use xlink:href="#SimHei-2e" x="550"/>
       <use xlink:href="#SimHei-2e" x="600"/>
      </g>
     </g>
    </g>
    <g id="xtick_36">
     <g id="text_47">
      <!-- Saint Hele... -->
      <g style="fill: #262626" transform="translate(561.570244 687.41675) rotate(-90) scale(0.132 -0.132)">
       <defs>
        <path id="SimHei-48" d="M 2850 125 
L 2275 125 
L 2275 2125 
L 850 2125 
L 850 125 
L 275 125 
L 275 4400 
L 850 4400 
L 850 2600 
L 2275 2600 
L 2275 4400 
L 2850 4400 
L 2850 125 
z
" transform="scale(0.015625)"/>
       </defs>
       <use xlink:href="#SimHei-53"/>
       <use xlink:href="#SimHei-61" x="50"/>
       <use xlink:href="#SimHei-69" x="100"/>
       <use xlink:href="#SimHei-6e" x="150"/>
       <use xlink:href="#SimHei-74" x="200"/>
       <use xlink:href="#SimHei-20" x="250"/>
       <use xlink:href="#SimHei-48" x="300"/>
       <use xlink:href="#SimHei-65" x="350"/>
       <use xlink:href="#SimHei-6c" x="400"/>
       <use xlink:href="#SimHei-65" x="450"/>
       <use xlink:href="#SimHei-2e" x="500"/>
       <use xlink:href="#SimHei-2e" x="550"/>
       <use xlink:href="#SimHei-2e" x="600"/>
      </g>
     </g>
    </g>
    <g id="xtick_37">
     <g id="text_48">
      <!-- Montserrat -->
      <g style="fill: #262626" transform="translate(594.145856 667.61675) rotate(-90) scale(0.132 -0.132)">
       <use xlink:href="#SimHei-4d"/>
       <use xlink:href="#SimHei-6f" x="50"/>
       <use xlink:href="#SimHei-6e" x="100"/>
       <use xlink:href="#SimHei-74" x="150"/>
       <use xlink:href="#SimHei-73" x="200"/>
       <use xlink:href="#SimHei-65" x="250"/>
       <use xlink:href="#SimHei-72" x="300"/>
       <use xlink:href="#SimHei-72" x="350"/>
       <use xlink:href="#SimHei-61" x="400"/>
       <use xlink:href="#SimHei-74" x="450"/>
      </g>
     </g>
    </g>
    <g id="xtick_38">
     <g id="text_49">
      <!-- Falkland I... -->
      <g style="fill: #262626" transform="translate(626.721469 687.41675) rotate(-90) scale(0.132 -0.132)">
       <defs>
        <path id="SimHei-46" d="M 2925 3925 
L 875 3925 
L 875 2525 
L 2425 2525 
L 2425 2050 
L 875 2050 
L 875 125 
L 300 125 
L 300 4400 
L 2925 4400 
L 2925 3925 
z
" transform="scale(0.015625)"/>
       </defs>
       <use xlink:href="#SimHei-46"/>
       <use xlink:href="#SimHei-61" x="50"/>
       <use xlink:href="#SimHei-6c" x="100"/>
       <use xlink:href="#SimHei-6b" x="150"/>
       <use xlink:href="#SimHei-6c" x="200"/>
       <use xlink:href="#SimHei-61" x="250"/>
       <use xlink:href="#SimHei-6e" x="300"/>
       <use xlink:href="#SimHei-64" x="350"/>
       <use xlink:href="#SimHei-20" x="400"/>
       <use xlink:href="#SimHei-49" x="450"/>
       <use xlink:href="#SimHei-2e" x="500"/>
       <use xlink:href="#SimHei-2e" x="550"/>
       <use xlink:href="#SimHei-2e" x="600"/>
      </g>
     </g>
    </g>
    <g id="xtick_39">
     <g id="text_50">
      <!-- Niue -->
      <g style="fill: #262626" transform="translate(659.297081 628.01675) rotate(-90) scale(0.132 -0.132)">
       <use xlink:href="#SimHei-4e"/>
       <use xlink:href="#SimHei-69" x="50"/>
       <use xlink:href="#SimHei-75" x="100"/>
       <use xlink:href="#SimHei-65" x="150"/>
      </g>
     </g>
    </g>
    <g id="xtick_40">
     <g id="text_51">
      <!-- Tokelau -->
      <g style="fill: #262626" transform="translate(691.872694 647.81675) rotate(-90) scale(0.132 -0.132)">
       <use xlink:href="#SimHei-54"/>
       <use xlink:href="#SimHei-6f" x="50"/>
       <use xlink:href="#SimHei-6b" x="100"/>
       <use xlink:href="#SimHei-65" x="150"/>
       <use xlink:href="#SimHei-6c" x="200"/>
       <use xlink:href="#SimHei-61" x="250"/>
       <use xlink:href="#SimHei-75" x="300"/>
      </g>
     </g>
    </g>
    <g id="text_52">
     <!-- 国家 -->
     <g style="fill: #262626" transform="translate(364.291875 703.00425) scale(0.144 -0.144)">
      <use xlink:href="#SimHei-56fd"/>
      <use xlink:href="#SimHei-5bb6" x="100"/>
     </g>
    </g>
   </g>
   <g id="matplotlib.axis_4">
    <g id="ytick_9">
     <g id="line2d_29">
      <path d="M 52.93575 592.11675 
L 704.448 592.11675 
" clip-path="url(#pab1554bb18)" style="fill: none; stroke: #ffffff; stroke-linecap: round"/>
     </g>
     <g id="text_53">
      <!-- 0 -->
      <g style="fill: #262626" transform="translate(41.78575 594.17925) rotate(-90) scale(0.132 -0.132)">
       <use xlink:href="#SimHei-30"/>
      </g>
     </g>
    </g>
    <g id="ytick_10">
     <g id="line2d_30">
      <path d="M 52.93575 538.909981 
L 704.448 538.909981 
" clip-path="url(#pab1554bb18)" style="fill: none; stroke: #ffffff; stroke-linecap: round"/>
     </g>
     <g id="text_54">
      <!-- 10000 -->
      <g style="fill: #262626" transform="translate(41.78575 567.372481) rotate(-90) scale(0.132 -0.132)">
       <use xlink:href="#SimHei-31"/>
       <use xlink:href="#SimHei-30" x="50"/>
       <use xlink:href="#SimHei-30" x="100"/>
       <use xlink:href="#SimHei-30" x="150"/>
       <use xlink:href="#SimHei-30" x="200"/>
      </g>
     </g>
    </g>
    <g id="ytick_11">
     <g id="line2d_31">
      <path d="M 52.93575 485.703211 
L 704.448 485.703211 
" clip-path="url(#pab1554bb18)" style="fill: none; stroke: #ffffff; stroke-linecap: round"/>
     </g>
     <g id="text_55">
      <!-- 20000 -->
      <g style="fill: #262626" transform="translate(41.78575 514.165711) rotate(-90) scale(0.132 -0.132)">
       <use xlink:href="#SimHei-32"/>
       <use xlink:href="#SimHei-30" x="50"/>
       <use xlink:href="#SimHei-30" x="100"/>
       <use xlink:href="#SimHei-30" x="150"/>
       <use xlink:href="#SimHei-30" x="200"/>
      </g>
     </g>
    </g>
    <g id="ytick_12">
     <g id="line2d_32">
      <path d="M 52.93575 432.496442 
L 704.448 432.496442 
" clip-path="url(#pab1554bb18)" style="fill: none; stroke: #ffffff; stroke-linecap: round"/>
     </g>
     <g id="text_56">
      <!-- 30000 -->
      <g style="fill: #262626" transform="translate(41.78575 460.958942) rotate(-90) scale(0.132 -0.132)">
       <defs>
        <path id="SimHei-33" d="M 250 1225 
L 700 1300 
Q 800 975 1025 762 
Q 1250 550 1587 562 
Q 1925 575 2125 837 
Q 2325 1100 2300 1437 
Q 2275 1775 2037 1962 
Q 1800 2150 1275 2225 
L 1275 2550 
Q 1800 2600 2037 2825 
Q 2275 3050 2250 3412 
Q 2225 3775 1925 3937 
Q 1625 4100 1287 3975 
Q 950 3850 750 3275 
L 300 3350 
Q 450 3800 712 4100 
Q 975 4400 1425 4450 
Q 1875 4500 2212 4337 
Q 2550 4175 2687 3837 
Q 2825 3500 2725 3100 
Q 2625 2700 2150 2400 
Q 2500 2250 2687 1950 
Q 2875 1650 2812 1162 
Q 2750 675 2375 375 
Q 2000 75 1525 87 
Q 1050 100 700 387 
Q 350 675 250 1225 
z
" transform="scale(0.015625)"/>
       </defs>
       <use xlink:href="#SimHei-33"/>
       <use xlink:href="#SimHei-30" x="50"/>
       <use xlink:href="#SimHei-30" x="100"/>
       <use xlink:href="#SimHei-30" x="150"/>
       <use xlink:href="#SimHei-30" x="200"/>
      </g>
     </g>
    </g>
    <g id="ytick_13">
     <g id="line2d_33">
      <path d="M 52.93575 379.289672 
L 704.448 379.289672 
" clip-path="url(#pab1554bb18)" style="fill: none; stroke: #ffffff; stroke-linecap: round"/>
     </g>
     <g id="text_57">
      <!-- 40000 -->
      <g style="fill: #262626" transform="translate(41.78575 407.752172) rotate(-90) scale(0.132 -0.132)">
       <use xlink:href="#SimHei-34"/>
       <use xlink:href="#SimHei-30" x="50"/>
       <use xlink:href="#SimHei-30" x="100"/>
       <use xlink:href="#SimHei-30" x="150"/>
       <use xlink:href="#SimHei-30" x="200"/>
      </g>
     </g>
    </g>
    <g id="text_58">
     <!-- 2021年人口数 -->
     <g style="fill: #262626" transform="translate(26.91075 526.213875) rotate(-90) scale(0.144 -0.144)">
      <use xlink:href="#SimHei-32"/>
      <use xlink:href="#SimHei-30" x="50"/>
      <use xlink:href="#SimHei-32" x="100"/>
      <use xlink:href="#SimHei-31" x="150"/>
      <use xlink:href="#SimHei-5e74" x="200"/>
      <use xlink:href="#SimHei-4eba" x="300"/>
      <use xlink:href="#SimHei-53e3" x="400"/>
      <use xlink:href="#SimHei-6570" x="500"/>
     </g>
    </g>
   </g>
   <g id="patch_28">
    <path d="M 56.193311 592.11675 
L 82.253801 592.11675 
L 82.253801 384.30175 
L 56.193311 384.30175 
z
" clip-path="url(#pab1554bb18)" style="fill: #ea96a3; stroke: #ffffff; stroke-linejoin: miter"/>
   </g>
   <g id="patch_29">
    <path d="M 88.768924 592.11675 
L 114.829414 592.11675 
L 114.829414 396.778737 
L 88.768924 396.778737 
z
" clip-path="url(#pab1554bb18)" style="fill: #e79683; stroke: #ffffff; stroke-linejoin: miter"/>
   </g>
   <g id="patch_30">
    <path d="M 121.344536 592.11675 
L 147.405026 592.11675 
L 147.405026 412.426848 
L 121.344536 412.426848 
z
" clip-path="url(#pab1554bb18)" style="fill: #d7944e; stroke: #ffffff; stroke-linejoin: miter"/>
   </g>
   <g id="patch_31">
    <path d="M 153.920149 592.11675 
L 179.980639 592.11675 
L 179.980639 418.141255 
L 153.920149 418.141255 
z
" clip-path="url(#pab1554bb18)" style="fill: #bf9a4a; stroke: #ffffff; stroke-linejoin: miter"/>
   </g>
   <g id="patch_32">
    <path d="M 186.495761 592.11675 
L 212.556251 592.11675 
L 212.556251 422.046632 
L 186.495761 422.046632 
z
" clip-path="url(#pab1554bb18)" style="fill: #ab9e47; stroke: #ffffff; stroke-linejoin: miter"/>
   </g>
   <g id="patch_33">
    <path d="M 219.071374 592.11675 
L 245.131864 592.11675 
L 245.131864 426.404267 
L 219.071374 426.404267 
z
" clip-path="url(#pab1554bb18)" style="fill: #98a246; stroke: #ffffff; stroke-linejoin: miter"/>
   </g>
   <g id="patch_34">
    <path d="M 251.646986 592.11675 
L 277.707476 592.11675 
L 277.707476 449.895055 
L 251.646986 449.895055 
z
" clip-path="url(#pab1554bb18)" style="fill: #7fa946; stroke: #ffffff; stroke-linejoin: miter"/>
   </g>
   <g id="patch_35">
    <path d="M 284.222599 592.11675 
L 310.283089 592.11675 
L 310.283089 496.078531 
L 284.222599 496.078531 
z
" clip-path="url(#pab1554bb18)" style="fill: #48b052; stroke: #ffffff; stroke-linejoin: miter"/>
   </g>
   <g id="patch_36">
    <path d="M 316.798211 592.11675 
L 342.858701 592.11675 
L 342.858701 501.516263 
L 316.798211 501.516263 
z
" clip-path="url(#pab1554bb18)" style="fill: #49ae83; stroke: #ffffff; stroke-linejoin: miter"/>
   </g>
   <g id="patch_37">
    <path d="M 349.373824 592.11675 
L 375.434314 592.11675 
L 375.434314 508.161789 
L 349.373824 508.161789 
z
" clip-path="url(#pab1554bb18)" style="fill: #4aad96; stroke: #ffffff; stroke-linejoin: miter"/>
   </g>
   <g id="patch_38">
    <path d="M 381.949436 592.11675 
L 408.009926 592.11675 
L 408.009926 525.432706 
L 381.949436 525.432706 
z
" clip-path="url(#pab1554bb18)" style="fill: #4baba4; stroke: #ffffff; stroke-linejoin: miter"/>
   </g>
   <g id="patch_39">
    <path d="M 414.525049 592.11675 
L 440.585539 592.11675 
L 440.585539 530.109581 
L 414.525049 530.109581 
z
" clip-path="url(#pab1554bb18)" style="fill: #4dabb2; stroke: #ffffff; stroke-linejoin: miter"/>
   </g>
   <g id="patch_40">
    <path d="M 447.100661 592.11675 
L 473.161151 592.11675 
L 473.161151 532.370869 
L 447.100661 532.370869 
z
" clip-path="url(#pab1554bb18)" style="fill: #50acc3; stroke: #ffffff; stroke-linejoin: miter"/>
   </g>
   <g id="patch_41">
    <path d="M 479.676274 592.11675 
L 505.736764 592.11675 
L 505.736764 534.185219 
L 479.676274 534.185219 
z
" clip-path="url(#pab1554bb18)" style="fill: #56addb; stroke: #ffffff; stroke-linejoin: miter"/>
   </g>
   <g id="patch_42">
    <path d="M 512.251886 592.11675 
L 538.312376 592.11675 
L 538.312376 560.698153 
L 512.251886 560.698153 
z
" clip-path="url(#pab1554bb18)" style="fill: #94aee8; stroke: #ffffff; stroke-linejoin: miter"/>
   </g>
   <g id="patch_43">
    <path d="M 544.827499 592.11675 
L 570.887989 592.11675 
L 570.887989 563.236116 
L 544.827499 563.236116 
z
" clip-path="url(#pab1554bb18)" style="fill: #b6a8eb; stroke: #ffffff; stroke-linejoin: miter"/>
   </g>
   <g id="patch_44">
    <path d="M 577.403111 592.11675 
L 603.463601 592.11675 
L 603.463601 568.503586 
L 577.403111 568.503586 
z
" clip-path="url(#pab1554bb18)" style="fill: #ce9be9; stroke: #ffffff; stroke-linejoin: miter"/>
   </g>
   <g id="patch_45">
    <path d="M 609.978724 592.11675 
L 636.039214 592.11675 
L 636.039214 571.972667 
L 609.978724 571.972667 
z
" clip-path="url(#pab1554bb18)" style="fill: #e689e4; stroke: #ffffff; stroke-linejoin: miter"/>
   </g>
   <g id="patch_46">
    <path d="M 642.554336 592.11675 
L 668.614826 592.11675 
L 668.614826 581.704185 
L 642.554336 581.704185 
z
" clip-path="url(#pab1554bb18)" style="fill: #e88fcc; stroke: #ffffff; stroke-linejoin: miter"/>
   </g>
   <g id="patch_47">
    <path d="M 675.129949 592.11675 
L 701.190439 592.11675 
L 701.190439 582.172405 
L 675.129949 582.172405 
z
" clip-path="url(#pab1554bb18)" style="fill: #e993b9; stroke: #ffffff; stroke-linejoin: miter"/>
   </g>
   <g id="line2d_34">
    <path clip-path="url(#pab1554bb18)" style="fill: none; stroke: #424242; stroke-width: 2.7; stroke-linecap: round"/>
   </g>
   <g id="line2d_35">
    <path clip-path="url(#pab1554bb18)" style="fill: none; stroke: #424242; stroke-width: 2.7; stroke-linecap: round"/>
   </g>
   <g id="line2d_36">
    <path clip-path="url(#pab1554bb18)" style="fill: none; stroke: #424242; stroke-width: 2.7; stroke-linecap: round"/>
   </g>
   <g id="line2d_37">
    <path clip-path="url(#pab1554bb18)" style="fill: none; stroke: #424242; stroke-width: 2.7; stroke-linecap: round"/>
   </g>
   <g id="line2d_38">
    <path clip-path="url(#pab1554bb18)" style="fill: none; stroke: #424242; stroke-width: 2.7; stroke-linecap: round"/>
   </g>
   <g id="line2d_39">
    <path clip-path="url(#pab1554bb18)" style="fill: none; stroke: #424242; stroke-width: 2.7; stroke-linecap: round"/>
   </g>
   <g id="line2d_40">
    <path clip-path="url(#pab1554bb18)" style="fill: none; stroke: #424242; stroke-width: 2.7; stroke-linecap: round"/>
   </g>
   <g id="line2d_41">
    <path clip-path="url(#pab1554bb18)" style="fill: none; stroke: #424242; stroke-width: 2.7; stroke-linecap: round"/>
   </g>
   <g id="line2d_42">
    <path clip-path="url(#pab1554bb18)" style="fill: none; stroke: #424242; stroke-width: 2.7; stroke-linecap: round"/>
   </g>
   <g id="line2d_43">
    <path clip-path="url(#pab1554bb18)" style="fill: none; stroke: #424242; stroke-width: 2.7; stroke-linecap: round"/>
   </g>
   <g id="line2d_44">
    <path clip-path="url(#pab1554bb18)" style="fill: none; stroke: #424242; stroke-width: 2.7; stroke-linecap: round"/>
   </g>
   <g id="line2d_45">
    <path clip-path="url(#pab1554bb18)" style="fill: none; stroke: #424242; stroke-width: 2.7; stroke-linecap: round"/>
   </g>
   <g id="line2d_46">
    <path clip-path="url(#pab1554bb18)" style="fill: none; stroke: #424242; stroke-width: 2.7; stroke-linecap: round"/>
   </g>
   <g id="line2d_47">
    <path clip-path="url(#pab1554bb18)" style="fill: none; stroke: #424242; stroke-width: 2.7; stroke-linecap: round"/>
   </g>
   <g id="line2d_48">
    <path clip-path="url(#pab1554bb18)" style="fill: none; stroke: #424242; stroke-width: 2.7; stroke-linecap: round"/>
   </g>
   <g id="line2d_49">
    <path clip-path="url(#pab1554bb18)" style="fill: none; stroke: #424242; stroke-width: 2.7; stroke-linecap: round"/>
   </g>
   <g id="line2d_50">
    <path clip-path="url(#pab1554bb18)" style="fill: none; stroke: #424242; stroke-width: 2.7; stroke-linecap: round"/>
   </g>
   <g id="line2d_51">
    <path clip-path="url(#pab1554bb18)" style="fill: none; stroke: #424242; stroke-width: 2.7; stroke-linecap: round"/>
   </g>
   <g id="line2d_52">
    <path clip-path="url(#pab1554bb18)" style="fill: none; stroke: #424242; stroke-width: 2.7; stroke-linecap: round"/>
   </g>
   <g id="line2d_53">
    <path clip-path="url(#pab1554bb18)" style="fill: none; stroke: #424242; stroke-width: 2.7; stroke-linecap: round"/>
   </g>
   <g id="patch_48">
    <path d="M 52.93575 592.11675 
L 52.93575 373.911 
" style="fill: none; stroke: #ffffff; stroke-width: 1.25; stroke-linejoin: miter; stroke-linecap: square"/>
   </g>
   <g id="patch_49">
    <path d="M 704.448 592.11675 
L 704.448 373.911 
" style="fill: none; stroke: #ffffff; stroke-width: 1.25; stroke-linejoin: miter; stroke-linecap: square"/>
   </g>
   <g id="patch_50">
    <path d="M 52.93575 592.11675 
L 704.448 592.11675 
" style="fill: none; stroke: #ffffff; stroke-width: 1.25; stroke-linejoin: miter; stroke-linecap: square"/>
   </g>
   <g id="patch_51">
    <path d="M 52.93575 373.911 
L 704.448 373.911 
" style="fill: none; stroke: #ffffff; stroke-width: 1.25; stroke-linejoin: miter; stroke-linecap: square"/>
   </g>
  </g>
 </g>
 <defs>
  <clipPath id="p76f179bc1d">
   <rect x="52.93575" y="27.912" width="651.51225" height="218.20575"/>
  </clipPath>
  <clipPath id="pab1554bb18">
   <rect x="52.93575" y="373.911" width="651.51225" height="218.20575"/>
  </clipPath>
 </defs>
</svg>
